<?xml version="1.0" encoding="UTF-8"?>
<svg id="Layer_1" data-name="Layer 1" xmlns="http://www.w3.org/2000/svg" xmlns:xlink="http://www.w3.org/1999/xlink" version="1.1" viewBox="0 0 151.7 132">
  <defs>
    <style>
      .cls-1 {
        fill: url(#linear-gradient);
        stroke-width: 0px;
      }
    </style>
    <linearGradient id="linear-gradient" x1="1.4" y1="67.1" x2="150.1" y2="67.1" gradientTransform="translate(0 133.3) scale(1 -1)" gradientUnits="userSpaceOnUse">
      <stop offset="0" stop-color="#f0bed8"/>
      <stop offset="1" stop-color="#fff0bb"/>
    </linearGradient>
  </defs>
  <path class="cls-1" d="M104.9,17.4c14.3,5.1,33.4,6.8,41,15.9,7.5,9.2,3.6,25.7-1.7,40s-12.1,26.3-21.1,35.7c-9,9.5-20.3,16.4-32.3,18.9-11.9,2.5-24.5.5-34.7-4.7-10.3-5.3-18.1-13.8-27.8-22.2-9.7-8.4-21.3-16.7-25.3-27.7s-.4-24.6,7.3-34.3c7.6-9.6,19.4-15.3,30.3-21.9,11-6.6,21-14.1,30.8-13.6,9.8.5,19.2,8.9,33.5,13.9Z"/>
</svg>