<?xml version="1.0" encoding="UTF-8"?>
<svg id="Layer_1" data-name="Layer 1" xmlns="http://www.w3.org/2000/svg" xmlns:xlink="http://www.w3.org/1999/xlink" version="1.1" viewBox="0 0 139 130">
  <defs>
    <style>
      .cls-1 {
        fill: url(#linear-gradient);
        stroke-width: 0px;
      }
    </style>
    <linearGradient id="linear-gradient" x1="135.8" y1="529.1" x2="2.2" y2="529.1" gradientTransform="translate(0 -464)" gradientUnits="userSpaceOnUse">
      <stop offset="0" stop-color="#f0bed8"/>
      <stop offset="1" stop-color="#fff0bb"/>
    </linearGradient>
  </defs>
  <path class="cls-1" d="M112.8,8.3c8.7,5.5,12.3,18.8,15.8,30.8,3.4,12.1,6.8,22.9,7.2,34.7s-2,24.6-9.7,31.7c-7.8,7.1-20.9,8.6-33.1,11.6-12.3,3-23.7,7.4-38,9.1-14.3,1.6-31.6.4-41.4-8.6C3.8,108.6,1.4,91.9,2.4,76.8c.9-15.2,5.3-28.8,11.2-41.7,6-12.9,13.5-25,24.3-29.4,10.8-4.5,25-1.2,38.8-.8,13.9.4,27.5-2,36.1,3.4Z"/>
</svg>