<?xml version="1.0" encoding="UTF-8"?>
<svg id="Layer_1" data-name="Layer 1" xmlns="http://www.w3.org/2000/svg" xmlns:xlink="http://www.w3.org/1999/xlink" version="1.1" viewBox="0 0 157 176">
  <defs>
    <style>
      .cls-1 {
        fill: url(#linear-gradient);
        stroke-width: 0px;
      }
    </style>
    <linearGradient id="linear-gradient" x1="3.6" y1="87.9" x2="152.5" y2="87.9" gradientTransform="translate(0 177.3) scale(1 -1)" gradientUnits="userSpaceOnUse">
      <stop offset="0" stop-color="#f0bed8"/>
      <stop offset="1" stop-color="#fff0bb"/>
    </linearGradient>
  </defs>
  <path class="cls-1" d="M123.6,32.9c10.5,11.8,18.2,22.7,22.1,34.4,3.9,11.7,4.1,24.2,5.3,39.1,1.3,14.8,3.5,32-2.7,44.8-6.3,12.9-21.1,21.5-36,22.3-14.8.8-29.6-6.2-43.4-12.3-13.9-6.1-26.6-11.2-37.3-20.1-10.6-8.9-19-21.5-23.8-36.4-4.9-14.9-6.1-32.1-.6-46.9,5.6-14.8,18-27.2,32.4-37.2,14.5-9.9,30.9-17.4,45.7-14.8,14.8,2.6,27.9,15.3,38.3,27.1h0Z"/>
</svg>