<?xml version="1.0" encoding="UTF-8"?>
<svg id="Layer_1" data-name="Layer 1" xmlns="http://www.w3.org/2000/svg" xmlns:xlink="http://www.w3.org/1999/xlink" version="1.1" viewBox="0 0 152 144">
  <defs>
    <style>
      .cls-1 {
        fill: url(#linear-gradient);
        stroke-width: 0px;
      }
    </style>
    <linearGradient id="linear-gradient" x1="2.5" y1="73.5" x2="149.7" y2="73.5" gradientTransform="translate(0 145.3) scale(1 -1)" gradientUnits="userSpaceOnUse">
      <stop offset="0" stop-color="#f0bed8"/>
      <stop offset="1" stop-color="#fff0bb"/>
    </linearGradient>
  </defs>
  <path class="cls-1" d="M113.7,16.4c14.7,6.6,30.1,14.9,34.6,27.5,4.4,12.5-2.1,29.2-10.5,41.4s-18.7,19.9-27,28.8-14.8,19-24.1,23.8c-9.3,4.7-21.5,4-32-.1-10.6-4.1-19.4-11.6-29.7-19.9-10.3-8.3-22-17.4-22.5-27.5-.5-10,10.2-21.1,15.2-35.8,5.1-14.6,4.6-32.9,12.5-42.6C38.2,2.4,54.6,1.3,69.8,3.2c15.2,1.8,29.2,6.6,43.9,13.2Z"/>
</svg>