<?xml version="1.0" encoding="UTF-8"?>
<svg id="Layer_1" data-name="Layer 1" xmlns="http://www.w3.org/2000/svg" xmlns:xlink="http://www.w3.org/1999/xlink" version="1.1" viewBox="0 0 165 165">
  <defs>
    <style>
      .cls-1 {
        fill: url(#linear-gradient);
        stroke-width: 0px;
      }
    </style>
    <linearGradient id="linear-gradient" x1="162.8" y1="511.7" x2="3.9" y2="511.7" gradientTransform="translate(0 -430)" gradientUnits="userSpaceOnUse">
      <stop offset="0" stop-color="#f0bed8"/>
      <stop offset="1" stop-color="#fff0bb"/>
    </linearGradient>
  </defs>
  <path class="cls-1" d="M120.5,23.1c13.6,2.5,30.9,5.6,38,15.1,7.2,9.4,4.3,25.4-1.1,38.7-5.3,13.4-13,24.3-20.5,38.3s-14.8,31.2-27.6,39.4c-12.8,8.3-31.1,7.5-48.3,2.7-17.2-4.9-33.3-14-43.7-27.2-10.4-13.3-15.2-30.7-12.8-46.3,2.4-15.5,12-29,18.6-44.2,6.6-15.1,10.2-31.8,20.4-36,10.1-4.1,26.8,4.4,40.1,9.6,13.3,5.3,23.3,7.3,36.9,9.9Z"/>
</svg>