<?xml version="1.0" encoding="utf-8"?>
<!-- Generator: Adobe Illustrator 28.3.0, SVG Export Plug-In . SVG Version: 6.00 Build 0)  -->
<svg version="1.1" id="Layer_1" xmlns="http://www.w3.org/2000/svg" xmlns:xlink="http://www.w3.org/1999/xlink" x="0px" y="0px"
	 viewBox="0 0 46.1 45.8" style="enable-background:new 0 0 46.1 45.8;" xml:space="preserve">
<style type="text/css">
	.st0{fill:#FFFFFF;}
</style>
<g>
	<path class="st0" d="M44.7,39.6h-2.8V15.5h2.8c0.3,0,0.5-0.2,0.4-0.6c0-0.2-0.1-0.4-0.3-0.5L23.1,0.7c-0.1-0.1-0.3-0.1-0.5,0
		L0.8,14.5c-0.2,0.2-0.3,0.4-0.2,0.6c0.1,0.3,0.3,0.4,0.5,0.4H4v24.1H0.9c-0.3,0-0.5,0.2-0.5,0.5v4.6c0,0.3,0.2,0.5,0.5,0.5h43.8
		c0.2,0,0.5-0.2,0.5-0.5v-4.6C45.2,39.8,45,39.6,44.7,39.6z M22.9,6.3c1.8,0,3.2,1.4,3.2,3.2s-1.4,3.2-3.2,3.2
		c-1.8,0-3.2-1.4-3.2-3.2S21.1,6.3,22.9,6.3z M11.5,15.5h22.9v24.1H29V29.5c0-3.2-2.6-5.9-5.9-5.9c-3.2,0-5.9,2.6-5.9,5.9v10.1h-5.7
		C11.5,39.6,11.5,15.5,11.5,15.5z"/>
	<path class="st0" d="M31.1,22.2c0.7,0,1.2-0.6,1.2-1.3v-3.1c0-0.7-0.5-1.3-1.2-1.3H14.9c-0.7,0-1.2,0.6-1.2,1.3v3.1
		c0,0.7,0.5,1.3,1.2,1.3H31.1z M15,17.9h16v2.9H15V17.9z"/>
</g>
</svg>
