<?xml version="1.0" encoding="utf-8"?>
<!-- Generator: Adobe Illustrator 28.3.0, SVG Export Plug-In . SVG Version: 6.00 Build 0)  -->
<svg version="1.1" id="Layer_1" xmlns="http://www.w3.org/2000/svg" xmlns:xlink="http://www.w3.org/1999/xlink" x="0px" y="0px"
	 viewBox="0 0 46.1 45.8" style="enable-background:new 0 0 46.1 45.8;" xml:space="preserve">
<style type="text/css">
	.st0{fill:#010101;}
</style>
<g>
	<g>
		<g>
			<g>
				<path class="st0" d="M10,40.6H4.5c-0.3,0-0.5-0.2-0.5-0.5V15c0-0.3,0.2-0.5,0.5-0.5S5,14.7,5,15v24.6h4.5V15
					c0-0.3,0.2-0.5,0.5-0.5s0.5,0.2,0.5,0.5v25.1C10.5,40.4,10.3,40.6,10,40.6z"/>
			</g>
		</g>
	</g>
	<g>
		<g>
			<g>
				<path class="st0" d="M41.4,40.6h-5.5c-0.3,0-0.5-0.2-0.5-0.5V15c0-0.3,0.2-0.5,0.5-0.5s0.5,0.2,0.5,0.5v24.6h4.5V15
					c0-0.3,0.2-0.5,0.5-0.5s0.5,0.2,0.5,0.5v25.1C41.9,40.4,41.7,40.6,41.4,40.6z"/>
			</g>
		</g>
	</g>
	<g>
		<g>
			<g>
				<g>
					<path class="st0" d="M44.7,15.5L44.7,15.5H1.1c-0.2,0-0.4-0.1-0.5-0.4c-0.1-0.2,0-0.4,0.2-0.6L22.6,0.7c0.2-0.1,0.4-0.1,0.5,0
						l21.7,13.7c0.2,0.1,0.3,0.3,0.3,0.5C45.2,15.3,45,15.5,44.7,15.5z M2.9,14.5H43L22.9,1.8L2.9,14.5z"/>
				</g>
			</g>
		</g>
	</g>
	<g>
		<g>
			<g>
				<g>
					<path class="st0" d="M22.9,12.2c-1.5,0-2.8-1.2-2.8-2.8s1.2-2.8,2.8-2.8s2.8,1.2,2.8,2.8S24.4,12.2,22.9,12.2z M22.9,7.7
						c-1,0-1.8,0.8-1.8,1.8s0.8,1.8,1.8,1.8s1.8-0.8,1.8-1.8S23.9,7.7,22.9,7.7z"/>
				</g>
			</g>
		</g>
	</g>
	<g>
		<g>
			<g>
				<path class="st0" d="M44.7,45.2H0.9c-0.3,0-0.5-0.2-0.5-0.5v-4.6c0-0.3,0.2-0.5,0.5-0.5h43.8c0.3,0,0.5,0.2,0.5,0.5v4.6
					C45.2,45,44.9,45.2,44.7,45.2z M1.4,44.2h42.8v-3.6H1.4V44.2z"/>
			</g>
		</g>
	</g>
	<g>
		<g>
			<g>
				<path class="st0" d="M27.7,40.6c-0.3,0-0.5-0.2-0.5-0.5V29.3c0-1.7-2.4-3.7-4-3.7s-4,2.1-4,3.7v10.8c0,0.3-0.2,0.5-0.5,0.5
					s-0.5-0.2-0.5-0.5V29.3c0-2.2,2.8-4.7,5-4.7s5,2.5,5,4.7v10.8C28.2,40.4,27.9,40.6,27.7,40.6z"/>
			</g>
		</g>
	</g>
	<g>
		<g>
			<g>
				<path class="st0" d="M27,22.2h-7.7c-0.3,0-0.5-0.2-0.5-0.5v-3.1c0-0.3,0.2-0.5,0.5-0.5H27c0.3,0,0.5,0.2,0.5,0.5v3.1
					C27.5,22,27.2,22.2,27,22.2z M19.8,21.2h6.7v-2.1h-6.7V21.2z"/>
			</g>
		</g>
	</g>
</g>
</svg>
