<?xml version="1.0" encoding="utf-8"?>
<!-- Generator: Adobe Illustrator 28.3.0, SVG Export Plug-In . SVG Version: 6.00 Build 0)  -->
<svg version="1.1" id="Layer_1" xmlns="http://www.w3.org/2000/svg" xmlns:xlink="http://www.w3.org/1999/xlink" x="0px" y="0px"
	 viewBox="0 0 32 32" style="enable-background:new 0 0 32 32;" xml:space="preserve">
<style type="text/css">
	.st0{fill:#FFFFFF;}
</style>
<path class="st0" d="M16,29.3c-1.8,0-3.6-0.4-5.2-1.1c-1.6-0.7-3-1.7-4.2-2.8c-1.2-1.2-2.1-2.6-2.8-4.2c-0.7-1.6-1-3.4-1.1-5.2
	c0-1.8,0.4-3.6,1.1-5.2c0.7-1.6,1.7-3,2.8-4.2c1.2-1.2,2.6-2.1,4.2-2.8s3.4-1,5.2-1.1c1.8,0,3.6,0.4,5.2,1.1s3,1.7,4.2,2.8
	c1.2,1.2,2.2,2.6,2.9,4.2c0.7,1.6,1.1,3.4,1,5.2v1.9c0,1.3-0.4,2.4-1.3,3.4c-0.9,0.9-2,1.4-3.3,1.4c-0.8,0-1.5-0.2-2.2-0.5
	c-0.7-0.3-1.3-0.8-1.7-1.4c-0.6,0.6-1.4,1.1-2.2,1.5c-0.8,0.3-1.7,0.5-2.5,0.5c-1.8,0-3.4-0.7-4.7-2s-1.9-2.9-2-4.7
	c0-1.8,0.7-3.4,2-4.7c1.3-1.3,2.9-1.9,4.7-2c1.8,0,3.4,0.7,4.7,2c1.3,1.3,2,2.9,1.9,4.7v1.9c0,0.6,0.2,1.1,0.6,1.5s0.9,0.6,1.4,0.6
	c0.6,0,1.1-0.2,1.4-0.6c0.4-0.4,0.6-0.9,0.6-1.5V16c0-3-1-5.5-3.1-7.6S19,5.3,16,5.3s-5.5,1-7.6,3.1S5.3,13,5.3,16s1,5.5,3.1,7.6
	s4.6,3.1,7.6,3.1h6.7v2.7H16z M16,20c1.1,0,2.1-0.4,2.8-1.2S20,17.1,20,16s-0.4-2.1-1.2-2.8S17.1,12,16,12s-2.1,0.4-2.8,1.2
	S12,14.9,12,16s0.4,2.1,1.2,2.8S14.9,20,16,20"/>
</svg>
