<?xml version="1.0" encoding="UTF-8"?>
<svg id="Layer_1" data-name="Layer 1" xmlns="http://www.w3.org/2000/svg" version="1.1" viewBox="0 0 28.3 28.3">
  <defs>
    <style>
      .cls-1 {
        fill: #fdd835;
      }

      .cls-1, .cls-2, .cls-3 {
        stroke-width: 0px;
      }

      .cls-2 {
        fill: #f4b400;
      }

      .cls-3 {
        fill: #ffff8d;
      }
    </style>
  </defs>
  <path class="cls-1" d="M15.1,1.4l3.1,7.2c.2.5.8.9,1.4,1l7.6.7c.9.1,1.2,1.2.6,1.8l-5.8,4.8c-.5.4-.7,1-.6,1.6l1.7,7.8c.1.9-.8,1.5-1.5,1.1l-6.7-3.9c-.5-.3-1.1-.3-1.7,0l-6.7,3.9c-.8.4-1.7-.2-1.5-1.1l1.7-7.8c.1-.6,0-1.2-.6-1.6L.5,12c-.6-.6-.3-1.7.6-1.8l7.6-.7c.6,0,1.1-.4,1.4-1l3.1-7.2c.4-.8,1.5-.8,1.9,0"/>
  <path class="cls-3" d="M14.9,9l-.5-5.3c0-.3,0-.8.4-.8s.6.8.6.8l1.6,4.2c.6,1.6.4,2.2-.2,2.5-.7.4-1.7,0-1.8-1.4"/>
  <path class="cls-2" d="M21.5,16.4l4.6-3.6c.2-.2.6-.5.3-.8-.3-.3-1,.1-1,.1l-4,1.6c-1.2.4-2,1-2.1,1.8,0,1,.8,1.8,2.1.9"/>
</svg>