<?xml version="1.0" encoding="utf-8"?>
<!-- Generator: Adobe Illustrator 28.3.0, SVG Export Plug-In . SVG Version: 6.00 Build 0)  -->
<svg version="1.1" id="Layer_1" xmlns="http://www.w3.org/2000/svg" xmlns:xlink="http://www.w3.org/1999/xlink" x="0px" y="0px"
	 viewBox="0 0 32 32" style="enable-background:new 0 0 32 32;" xml:space="preserve">
<style type="text/css">
	.st0{fill:#FFFFFF;}
</style>
<path class="st0" d="M26.7,8h-5.3V5.3c0-1.5-1.2-2.7-2.7-2.7h-5.3c-1.5,0-2.7,1.2-2.7,2.7V8H5.3c-1.5,0-2.7,1.2-2.7,2.7v14.7
	c0,1.5,1.2,2.7,2.7,2.7h21.3c1.5,0,2.7-1.2,2.7-2.7V10.7C29.3,9.2,28.1,8,26.7,8 M13.3,5.3h5.3V8h-5.3V5.3z M16,12
	c1.8,0,3.3,1.5,3.3,3.3s-1.5,3.3-3.3,3.3c-1.8,0-3.3-1.5-3.3-3.3S14.2,12,16,12 M22.7,25.3H9.3v-1.7c0-1.8,3-3.3,6.7-3.3
	s6.7,1.5,6.7,3.3V25.3z"/>
</svg>
