<?xml version="1.0" encoding="utf-8"?>
<!-- Generator: Adobe Illustrator 28.3.0, SVG Export Plug-In . SVG Version: 6.00 Build 0)  -->
<svg version="1.1" id="Layer_1" xmlns="http://www.w3.org/2000/svg" xmlns:xlink="http://www.w3.org/1999/xlink" x="0px" y="0px"
	 viewBox="0 0 32 32" style="enable-background:new 0 0 32 32;" xml:space="preserve">
<style type="text/css">
	.st0{fill:#D78B28;}
</style>
<path class="st0" d="M14,14V2.8c0-1.1,0.9-2,2-2s2,0.9,2,2V4h10c0.6,0,1.2,0.3,1.6,0.8l2,2.6c0.3,0.4,0.3,0.8,0,1.2l-2,2.6
	c-0.4,0.5-1,0.8-1.6,0.8H18v20h-4V22H4c-0.6,0-1.2-0.3-1.6-0.8l-2-2.6c-0.3-0.4-0.3-0.8,0-1.2l2-2.6C2.8,14.3,3.4,14,4,14H14z
	 M16,20v-4H4l-1.5,2L4,20H16z M16,10h12l1.5-2L28,6H16V10z"/>
</svg>
