<svg xmlns="http://www.w3.org/2000/svg" viewBox="0 0 1194.92 797.36" id="brand-designing"><rect width="150.23" height="16.69" x="534.33" y="688.4" fill="#3fabc8" transform="rotate(180 609.44 696.745)"></rect><polygon fill="#43c2d3" points="653.6 705.09 842.27 705.09 906.84 593.25 718.17 593.25 653.6 705.09"></polygon><path fill="#3fabc8" d="M842.27,705.09H653.6s161.21-7.41,212.73-41.16Z" opacity=".21"></path><ellipse cx="791.38" cy="651.05" fill="#fff" rx="13.1" ry="8.88"></ellipse><g><path fill="#cbf0f6" d="M1022.7,394.32s50.79-184.28,97.77-133S1093.8,359,1093.8,359s-72.24,54.3-53.53,94Z"></path><path fill="#5ec1d4" d="M1028,411.79c.53-1.19,53.14-119.35,74.28-126.92l-.35-1c-21.54,7.72-72.69,122.58-74.86,127.47Z"></path><path fill="#5ec1d4" d="M1067.27 330.63l.84-.58c-5.88-8.53 12.6-39.14 14.4-41.58l-.82-.61C1081.47 288.17 1060.64 321 1067.27 330.63zM1049.93 365.21c.41-.29 41.72-28.52 50.26-30.61l-.24-1c-8.72 2.15-48.9 29.6-50.6 30.76z"></path><path fill="#cbf0f6" d="M1032.43,438.64s99.26-116.8,112-73.8S1114.36,447.09,1028,480Z"></path><path fill="#5ec1d4" d="M1041.7,458c.67-.82,67.09-81.29,84.14-76.83l.26-1c-17.66-4.61-82.44,73.83-85.19,77.17Z"></path><path fill="#5ec1d4" d="M1075.44 419.86c4.16-11.63 11.9-29.83 15.07-29.14l.22-1c-5-1.1-14.4 24.63-16.25 29.8zM1058.13 438.79c1.59-7.16 6.23-26.26 8.5-28.61l-.74-.71c-2.93 3-8.52 28-8.76 29.1z"></path><rect width="966.12" height="1.02" x="89.58" y="705.87" fill="#48c6dc"></rect><rect width="601.51" height="412.48" x="447.91" y="203.62" fill="#b3e2ec"></rect><rect width="449.74" height="11.34" x="523.79" y="239.81" fill="#fff" rx="4.69"></rect><rect width="601.51" height="2.04" x="450.73" y="275.69" fill="#fff"></rect><rect width="254.28" height="50.76" x="769.38" y="502.28" fill="#21aabd"></rect><rect width="203.85" height="82.39" x="470.06" y="321.16" fill="#e94d65"></rect><rect width="178.52" height="194.29" x="718.01" y="327.56" fill="#276ab8"></rect><path fill="#276ab8" d="M612,489.85V378h48.1q18.76,0,30,7.91t11.22,21.18q0,20.32-24.09,26.46,12.38,4.59,16,10.08t5,21.31q1.56,18.84,6.31,24.9H669.25q-3.36-7.78-3.36-19.42l-.17-6.63-.16-8.36q0-19.33-15.57-19.34h-5.57v53.75Zm32.45-63H651q18.43,0,18.43-19.25T651,388.34h-6.56Z"></path><path fill="#21aabd" d="M911.41,378V489.85H886.58l-46.7-70.79v70.79H829V378h20.57l51,76.45V378Z"></path><path fill="#fff" d="M780.18,376.54,811.6,489.4H778.69L772,464.93H738l-7.19,24.47H718l33.4-112.86ZM741.24,453.6h27.7l-13.31-50Z"></path><path fill="#276ab8" d="M928.66,490.36V377.5h46.79q49.86,0,49.86,56.56,0,56.29-51.68,56.3ZM961.4,481H970q11.82,0,16.37-10.21t4.54-36.92q0-26.7-4.5-36.87T970,386.85h-8.6Z"></path><rect width="131.68" height="131.76" x="462.95" y="364.91" fill="#21aabd"></rect><path fill="#fff" d="M543.36,483.6h-51.2V380h46.09C562,380,574,388.64,574,405.68c0,11.55-6.59,19.24-19.6,22.89,15.9,3.76,24,12.92,24,27.24C578.34,474.25,566.57,483.6,543.36,483.6Zm-50.2-1h50.2c22.87,0,34-8.76,34-26.79,0-14.39-8.48-23.38-25.21-26.71l-2.24-.45,2.22-.53C566,424.84,573,417.29,573,405.68,573,389.31,561.3,381,538.25,381H493.16Zm37.73-7.5h-9v-42h8.46c11.74,0,17.7,7.53,17.7,22.37C548.07,468.51,542.29,475.1,530.89,475.1Zm-8-1h8c10.89,0,16.18-6.08,16.18-18.6,0-14.38-5.46-21.37-16.7-21.37H522.9Zm8.67-48.46h-9.66V388.5h8.91c9.25,0,13.94,6,13.94,17.86C544.76,419.16,540.32,425.65,531.57,425.65Zm-8.67-1h8.67c8.2,0,12.19-6,12.19-18.29,0-11.35-4.23-16.86-12.94-16.86H522.9Z"></path><polygon fill="#091d5a" points="736.12 499.86 730.96 499.86 730.96 498.75 735.01 498.75 735.01 494.69 736.12 494.69 736.12 499.86"></polygon><path fill="#091d5a" d="M720.58,499.86h-8.64v-1.11h8.64Zm-19,0h-8.64v-1.11h8.64Zm-19,0h-8.64v-1.11h8.64Zm-19,0H654.9v-1.11h8.64Zm-19,0h-8.65v-1.11h8.65Zm-19,0h-8.64v-1.11h8.64Zm-19,0h-8.65v-1.11h8.65Z"></path><polygon fill="#091d5a" points="587.48 499.86 582.32 499.86 582.32 494.69 583.42 494.69 583.42 498.75 587.48 498.75 587.48 499.86"></polygon><path fill="#091d5a" d="M583.42,484.28h-1.1v-8.69h1.1Zm0-19.1h-1.1V456.5h1.1Zm0-19.1h-1.1V437.4h1.1Zm0-19.1h-1.1V418.3h1.1Zm0-19.09h-1.1v-8.68h1.1Zm0-19.1h-1.1v-8.68h1.1Z"></path><polygon fill="#091d5a" points="583.42 369.69 582.32 369.69 582.32 364.53 587.48 364.53 587.48 365.64 583.42 365.64 583.42 369.69"></polygon><path fill="#091d5a" d="M720.58,365.64h-8.64v-1.11h8.64Zm-19,0h-8.64v-1.11h8.64Zm-19,0h-8.64v-1.11h8.64Zm-19,0H654.9v-1.11h8.64Zm-19,0h-8.65v-1.11h8.65Zm-19,0h-8.64v-1.11h8.64Zm-19,0h-8.65v-1.11h8.65Z"></path><polygon fill="#091d5a" points="736.12 369.69 735.01 369.69 735.01 365.64 730.96 365.64 730.96 364.53 736.12 364.53 736.12 369.69"></polygon><path fill="#091d5a" d="M736.12,484.28H735V475.6h1.11Zm0-19.1H735V456.5h1.11Zm0-19.1H735V437.4h1.11Zm0-19.1H735V418.3h1.11Zm0-19.09H735v-8.68h1.11Zm0-19.1H735v-8.68h1.11Z"></path><rect width="21.32" height="18.74" x="573.43" y="357.62" fill="#091d5a"></rect><rect width="21.32" height="18.74" x="721.7" y="357.62" fill="#091d5a"></rect><rect width="21.32" height="18.74" x="573.43" y="491.92" fill="#091d5a"></rect><rect width="21.32" height="18.74" x="721.7" y="491.92" fill="#091d5a"></rect><path fill="#21aabd" d="M575.2,176.93H359.51a13.31,13.31,0,0,0-13.31,13.31v55a13.31,13.31,0,0,0,13.31,13.31h14.2v30.73l38.49-30.73h163a13.31,13.31,0,0,0,13.31-13.31v-55A13.31,13.31,0,0,0,575.2,176.93Z"></path><rect width="164.89" height="2.9" x="365.4" y="214.8" fill="#fff"></rect><rect width="66.9" height="2.9" x="365.4" y="196.48" fill="#fff"></rect><rect width="128.43" height="2.9" x="365.4" y="233.11" fill="#fff"></rect><rect width="156.93" height="115.23" x="950.32" y="572.83" fill="#e94d65" rx="26.1"></rect><path fill="#fff" d="M1060.89,628.32h0a28.75,28.75,0,1,0-50.58,0h0a29,29,0,0,0,4.51,6.18l.83,1.14c3.58,4.9,4.69,10.57,6.16,17.34l2.45,12.47,22.45-.53,2.64-12.14c1.55-7.43,2.52-11.69,5.93-16.52l1.72-2.44a28.46,28.46,0,0,0,3.89-5.5Z"></path><path fill="#112b82" d="M1042.33,648.64l-14.62-.34,0-.07-11.28-40.91h.14s3.82-.06,6.07,1.71a10.4,10.4,0,0,1,2.45,2.81,12.29,12.29,0,0,1,.83-1.42c1.38-2.07,3-3.24,4.37-3.12,1.58.13,2.89,1.68,3.75,3.46a5.18,5.18,0,0,1,4.16-3.45c1.72-.16,3.33.79,4.55,2.66a8.06,8.06,0,0,1,.66,1.19,8.11,8.11,0,0,1,6.54-3.85h.13l0,.14Zm-14.46-.54,14.29.33,7.65-40.91a7.91,7.91,0,0,0-6.32,3.85c.77,1.78,1,3.72.5,4.66a.94.94,0,0,1-.9.53c-.52,0-.85-.59-.88-1.55a7.33,7.33,0,0,1,1-3.65,9.48,9.48,0,0,0-.7-1.29c-.68-1.05-2.15-2.77-4.36-2.56a5,5,0,0,0-4.07,3.49,9.69,9.69,0,0,1,.94,4c0,.89-.36,1.38-.91,1.38s-.81-.66-.87-1.78a9.18,9.18,0,0,1,.61-3.58c-.83-1.81-2.13-3.41-3.64-3.54-1.28-.11-2.85,1-4.19,3a11.79,11.79,0,0,0-.87,1.52c.89,1.56,1.23,3.08,1,3.84a.81.81,0,0,1-.84.59,1.06,1.06,0,0,1-1-.58c-.43-.82,0-2.36.63-3.83a10.25,10.25,0,0,0-2.47-2.88c-2-1.54-5.12-1.65-5.81-1.66Zm15.49-36.5a7,7,0,0,0-.94,3.4c0,.83.28,1.35.68,1.36h0a.76.76,0,0,0,.69-.44C1044.24,615.15,1044.09,613.36,1043.36,611.6Zm-18.28.68c-.67,1.47-.92,2.84-.56,3.52a.84.84,0,0,0,.8.46.61.61,0,0,0,.64-.45A5.19,5.19,0,0,0,1025.08,612.28Zm8.94-1a8.88,8.88,0,0,0-.52,3.31c0,1,.31,1.59.66,1.59.54,0,.68-.65.71-1.19A9.37,9.37,0,0,0,1034,611.29Z"></path><path fill="#112b82" d="M1042.75,649.16l-15.43-.35-.1-.37-11.47-41.62.79,0s4-.09,6.39,1.82a10.78,10.78,0,0,1,2.1,2.21c.14-.24.29-.48.44-.71,1.51-2.26,3.3-3.48,4.85-3.34,1.71.14,2.93,1.61,3.68,2.86a5.33,5.33,0,0,1,4.13-2.84c1.93-.18,3.7.84,5,2.88.1.15.2.31.29.47a8.59,8.59,0,0,1,6.44-3.35l.8-.07Zm-14.49-1.56,13.48.31,7.44-39.79a7.28,7.28,0,0,0-5.12,3.3c.66,1.63,1,3.7.38,4.85a1.4,1.4,0,0,1-1.37.8c-.3,0-1.32-.17-1.37-2.05a7.83,7.83,0,0,1,1-3.68,9.42,9.42,0,0,0-.56-1c-.62-1-2-2.52-3.88-2.33a4.53,4.53,0,0,0-3.56,3,10,10,0,0,1,.89,4c-.07,1.74-1.1,1.87-1.42,1.87s-1.28-.22-1.38-2.27a9.79,9.79,0,0,1,.57-3.58c-.88-1.82-2-3-3.14-3s-2.5,1-3.72,2.8q-.39.6-.72,1.23c.85,1.57,1.19,3.13.87,4a1.39,1.39,0,0,1-1.34.92,1.57,1.57,0,0,1-1.42-.85c-.59-1.13,0-2.92.51-4a9.78,9.78,0,0,0-2.22-2.52,9.33,9.33,0,0,0-4.81-1.52Zm15-34.61a5.67,5.67,0,0,0-.36,2c0,.61.17.84.21.87s.13,0,.22-.18A4.29,4.29,0,0,0,1043.29,613Zm-18.16.57a3,3,0,0,0-.16,2,.34.34,0,0,0,.36.19c.08,0,.11,0,.15-.11A3.54,3.54,0,0,0,1025.13,613.56Zm9-.49a7.8,7.8,0,0,0-.09,1.51,2.54,2.54,0,0,0,.21,1,1.43,1.43,0,0,0,.14-.64A6.73,6.73,0,0,0,1034.1,613.07Z"></path><polygon fill="#112b82" points="1042.35 648.65 1027.7 648.32 1016.43 607.45 1016.66 607.38 1027.88 648.09 1042.15 648.41 1049.82 607.38 1050.05 607.43 1042.35 648.65"></polygon><polygon fill="#112b82" points="1042.77 649.17 1027.31 648.82 1027.21 648.46 1015.81 607.09 1017.02 606.76 1028.27 647.58 1041.73 647.89 1049.41 606.79 1050.65 607.02 1042.77 649.17"></polygon><path fill="#091d5a" d="M1020.77,647.85l3.28,18.4a10.63,10.63,0,0,0,10.46,8.77h2.18a10.63,10.63,0,0,0,10.46-8.77l3.28-18.4Z"></path><path fill="#e94d65" d="M977.44,148.73c-19.49,0-39.44-14.16-60.37-29-21.46-15.23-43.64-31-66.37-31.73-47.87-1.59-78.7,21.79-79,22l-1.26-1.62c.31-.24,31.7-24.07,80.34-22.46,23.35.77,45.79,16.7,67.49,32.11,24.15,17.15,47,33.35,68.74,27.37,18.78-5.16,27.7-11.35,35.57-16.82,9.72-6.75,17.4-12.08,38.91-12.33l0,2.06c-20.87.24-28.32,5.41-37.76,12-8,5.56-17.07,11.86-36.2,17.11A38,38,0,0,1,977.44,148.73Z"></path><rect width="112.73" height="2.06" x="928.52" y="147.09" fill="#e94d65" transform="rotate(-11.6 984.618 148.105)"></rect><path fill="#e94d65" d="M1042.38 139.31h-.15a3.28 3.28 0 01-2-5.7 3.2 3.2 0 012.36-.85 3.28 3.28 0 01-.16 6.55zm0-4.49a1.22 1.22 0 00-.06 2.44 1.24 1.24 0 001.28-1.17 1.22 1.22 0 00-1.16-1.27zM927.43 162.62h-.16a3.28 3.28 0 01-2-5.7 3.28 3.28 0 015.48 2.58h0a3.27 3.27 0 01-3.27 3.12zm0-4.5a1.23 1.23 0 000 2.45 1.26 1.26 0 00.88-.32 1.19 1.19 0 00.39-.85h0a1.21 1.21 0 00-.31-.88 1.19 1.19 0 00-.85-.39z"></path><path fill="#276ab8" d="M1022.55,159.35l18.56,48.16a2.36,2.36,0,1,1-2,3.2,2.34,2.34,0,0,1,.78-2.72l-18.57-48.17-16.7,40.66L1027,258.66l57.6-22.19-22.42-58.18Z"></path><polygon fill="#fff" points="1027.04 258.66 1017.09 232.85 1075.06 211.6 1084.64 236.47 1027.04 258.66"></polygon><path fill="#cbf0f6" d="M97.69,438.17a205.65,205.65,0,0,0,42.4,118.31c30.38,39.64,77.06,107.57,75.52,148.83h55.7c.18-78.92-5.63-381.13-105-366.55C109.17,347.13,96.29,393.7,97.69,438.17Z"></path><path fill="#5ec1d4" d="M239.39,705.34l1-.07c-1.56-22.44-5.2-67.44-12-116.72-3-21.48-6.29-41.87-9.86-60.6C203.86,450.83,185,400,162.32,377l-.73.71c22.49,22.93,41.31,73.55,55.92,150.46,3.57,18.72,6.88,39.09,9.85,60.55C234.19,637.94,237.83,682.92,239.39,705.34Z"></path><path fill="#5ec1d4" d="M217.7 528.46l.63-.81c-.8-.62-80-62.71-84.57-93.78l-1 .15C137.43 465.49 214.43 525.9 217.7 528.46zM228.22 589c.32-.29 32.26-30.49 24.48-77.29l-1 .16c7.68 46.25-23.86 76.09-24.18 76.39z"></path><path fill="#cbf0f6" d="M101.53,705.31h81.92c-9.69-46.49-40-158.87-105.94-150.39C12.3,563.32,72.72,663.05,101.53,705.31Z"></path><path fill="#5ec1d4" d="M144.14,705.47l1-.32c-11.44-34.6-40.67-116.39-65-128.52l-.46.92C103.64,589.51,132.74,671,144.14,705.47Z"></path></g><g><path fill="#e94d65" d="M363.47,370.22s-13-41.54-69.8-22.79c0,0-30.87,3.18-38.08,39.52L320,360.1l10.62-4Z"></path><path fill="#e94d65" d="M339.87,496.42,382.1,493S375,402.44,368.76,383.25,354,345.41,319.84,345.76,339.87,496.42,339.87,496.42Z"></path><path fill="#e94d65" d="M311.85,489.53l-50.53,3.58s-12.07-70-8.68-91.42,9.63-58.51,64.39-55.76,8.72,142.61,8.72,142.61Z"></path><path fill="#db3448" d="M273.26,356.9s-35.51,16.88-13.41,127.22l.89,1.82,14.78-.32s-11.92-117.55,7.52-127Z"></path><path fill="#112b82" d="M333.24,499,444.43,685.65l11.12,18.68a31.47,31.47,0,0,0,9.61,5.38c.43.16.86.3,1.29.43l7.33-11.22,27.37-40.7-31.58-57.14-52.72-95.42c-8.84-16-35.91-21.09-53.13-14.93Z"></path><path fill="#112b82" d="M407.29,706.89H225.41l-26.81-.78,0-.24,25.16-187.35c2.92-20.75,17.11-32.76,38-32.22l92.63,1.89c21.16.55,32.84,14.92,34.42,36l18.29,181.66Z"></path><path fill="#112b82" d="M272.19,485.69h-6.93c-18.6.6-40.85,3.91-52.91,9.91s-18.2,12.11-24.47,21.48L105.37,640.64a31.76,31.76,0,0,0,7.91,43.46h0c13.72,9.84,52.65-11,63.21-24.21l89.78-137.81Z"></path><path fill="#112b82" d="M131.84,630.05H281.53v63.66H131.84A31.83,31.83,0,0,1,100,661.88Z"></path><polygon fill="#091d5a" points="208.71 629.89 211.9 604.9 223.58 586 218.88 629.61 208.71 629.89"></polygon><polygon fill="#091d5a" points="397.19 597.85 394.12 576.13 388.31 677.56 404.88 677.56 397.19 597.85"></polygon><path fill="#ff7e6c" d="M286.41,409.12l1.53-1.36c-5-5.6-2-9.71-2-9.75l-1.64-1.22S280.37,402.29,286.41,409.12Z"></path><path fill="#e94d65" d="M310,345.87c-.87,1.14-3.47,1.74-4.64,2.62a37.35,37.35,0,0,0-4.39,4.17c-2.62,2.81-5,5.94-7.77,8.54a10.81,10.81,0,0,1-5.41,3.22,9.8,9.8,0,0,1-5.55-1.21,26.22,26.22,0,0,1-2.87-1.59,34.93,34.93,0,0,1-15.56-29.7,19.44,19.44,0,0,1,2.05-8.81c1.69-3,4.42-4.78,7-6.39.62-.36,1.23-.74,1.84-1.11,6.25-3.72,12.86-7,19.68-6.08a12.26,12.26,0,0,1,6.46,2.73,20.68,20.68,0,0,1,4.69,6.74C308,324.14,313.91,340.74,310,345.87Z"></path><path fill="#e94d65" fill-rule="evenodd" d="M265.16,345.71c-.42-1.89-.75-4-2-5.21A26.73,26.73,0,0,0,266.55,355c2,3.58,7.9,10.88,11.61,9.16-.55-3.15-5.43-4.88-7.31-7A25.68,25.68,0,0,1,265.16,345.71Z"></path><path fill="#f8cdab" d="M345.53,475c6.94,10.59,19.3,16.06,31,21l19.61,8.25c-7.61,8-18.33,12.36-29,15.16-21.55,5.64-12.42,17.37-34.12,12.34-8-1.86-48-15.85-56.18-16.84-5.34-.64-10.88-.62-15.85-2.7-3.44-1.43-6.82-5-5.45-8.47,1.23-3.1,5.2-3.74,8.45-4.51,7.15-1.68,13.38-6.05,18.83-11a55.82,55.82,0,0,0,8.57-9.47c5.8-8.37,10.74-23,9.13-33.08,3.07-.88,3.81,4.06,6.9,4.84a98.54,98.54,0,0,0,14.77,2.56c2.44.23,4.89.38,7.34.43,2,0,4.88-.59,6.75.06,3.19,1.12,3.13,6.17,3.93,9A45.07,45.07,0,0,0,345.53,475Z"></path><path fill="#112b82" d="M360.28,488.11s10.19,11.06-24.71,40.77c0,0-39.23-15.29-53.66-42.69,0,0-39.22-2.89-52.21,4.33l19,19,13,16.16,48.17,23.36,50.48-17.6,36.92-19,4.62-9.52-22.21-14Z"></path><path fill="#091d5a" d="M380.17,488.07s-11.43,13.69-14.53,23.54c0,0,11.92-16,33.13-11,0,0,9.3,1.74,28.19,23,0,0-12.49-31.68-30.51-32.55C396.45,491,381.92,488.07,380.17,488.07Z"></path><path fill="#ec905d" d="M339.12,451.29s-1.53,5.76,4,20c0,0-33.27.19-30.57-21.16Z"></path><path fill="#f8cdab" d="M359.42,404.06c2,8.83,4.53,17.88,2.92,26.78a50.22,50.22,0,0,1-5,13.48,32.64,32.64,0,0,1-4.3,6.89c-3.83,4.39-9.61,6.67-15.38,7.39s-11.61,0-17.38-.66c-5-.59-12.61-4.16-17.28-6.08-7.41-3-10.83-6.39-13.84-13.81-.67-1.64-1.27-3.42-2.63-4.55-1.59-1.31-3.79-1.43-5.81-1.81a20,20,0,0,1-15.48-14.91c-.79-3.46-.47-7.47,2-10s6.77-2.93,10.23-1.76,6.34,3.57,9.13,5.93c-3.28-3.41-5.13-7.95-6.33-12.53-1.54-5.94-2.07-12.3-.38-18.21,2.57-9,10.26-16.1,19.14-19.15s18.75-2.35,27.64.66c6.5,2.2,12.52,5.57,18.51,8.93a49.78,49.78,0,0,1,7.94,5.12c.95.79,2.83,2.12,3.25,3.33.53,1.54-.19,1.11-.33,2.49C355.31,388.63,357.88,397.15,359.42,404.06Z"></path><path fill="#e94d65" d="M364.86,381.26c1.19,2.23-24,.61-24,.61l-5.38-5.77-3.85,10.77L302,390.72l-3.46-5-.77,7.31-24.23,5.77s-5.77-32.31,36.54-41.16C310.07,357.64,350.43,354.11,364.86,381.26Z"></path><path fill="#fff" d="M276,426.12l-16.58,24.37a4.27,4.27,0,0,0,2.35,6.51l17.34,5a4.27,4.27,0,0,0,5.4-4.76L279.79,427A2.11,2.11,0,0,0,276,426.12Z"></path><path fill="#1d1626" d="M305.77 403.88s8.76-5.33 13.71-4.19-7.8 6.09-10.09 6.66S302 408.07 305.77 403.88zM336.34 393.69s8.76-5.33 13.71-4.19-7.81 6.09-10.09 6.66S332.53 397.88 336.34 393.69zM321.3 414c.59 2.13-.22 4.21-1.82 4.66s-3.37-.92-4-3 .22-4.21 1.81-4.66S320.7 411.86 321.3 414zM350.44 405.13c.59 2.13-.22 4.22-1.82 4.66s-3.37-.92-4-3 .22-4.22 1.81-4.66S349.84 403 350.44 405.13z"></path><path fill="#ec905d" d="M338.76,431.79l-.36-1.06,6.57-2.22a3.17,3.17,0,0,0,2.38-2.2c1.65-5.94-10.78-19.86-10.9-20l.83-.74c.53.59,13,14.51,11.15,21a4.27,4.27,0,0,1-3.12,3Z"></path><path fill="#fff" d="M324.34,437.54c0-.14,18.09.95,18.67.52s-3.38,9.76-8.1,9S323.48,442.44,324.34,437.54Z"></path><path fill="#f8cdab" d="M303.62,642.88s23.46-1,43.16-7.68c6.28-2.12,8.17,3.61,4.88,6.78s-19.07,8.44-32,10S303.62,642.88,303.62,642.88Z"></path><path fill="#f8cdab" d="M304.14,653s36.57-6.9,43.06-8.21,8.22,3.52,5,6.72-19,8.67-31.91,10.35S304.14,653,304.14,653Z"></path><path fill="#f8cdab" d="M304.06,663s36.57-6.9,43.06-8.21,8.22,3.52,5,6.72-19,8.67-31.91,10.35S304.06,663,304.06,663Z"></path><path fill="#f8cdab" d="M283,629.71c14.83-5.09,25.27-5.4,26.38-5.94s6.1-4.38,7.24-1.22-1.89,7.16-6.66,10.85-14.18,5.36-14.18,5.36,19,5.47,24.72,4.3l.93,23.87c8.91-1.29,17.82-2.59,20.7-3,6.39-1,8.24,3.44,5.12,6.26s-18.53,7.18-31.3,8.45c-20.2,2-52-2.58-52-2.58l2.4-40.74S268.15,634.79,283,629.71Z"></path><path fill="#ec905d" d="M317.31 651.83a.51.51 0 01.11-1c17.44-1.67 28.54-6.25 28.65-6.3a.52.52 0 01.4 1c-.11 0-11.34 4.68-29 6.37A.49.49 0 01317.31 651.83zM323.3 659.82a.51.51 0 01.12-1c9.21-.67 22.24-4.25 22.37-4.29a.51.51 0 01.27 1c-.13 0-13.26 3.64-22.56 4.32A.64.64 0 01323.3 659.82zM328.24 669.67a.48.48 0 01-.34-.41.5.5 0 01.43-.58A137.43 137.43 0 00346.87 664a.51.51 0 01.32 1 136.35 136.35 0 01-18.71 4.72A.39.39 0 01328.24 669.67z"></path><path fill="#fff" d="M159.86,655.85l-1-.21c3.32-15.83,33.77-25.15,36.73-26l38.46-61,.86.55-38.66,61.27-.19,0C195.73,630.64,163.15,640.17,159.86,655.85Z"></path><rect width="1.02" height="69.36" x="230.08" y="596.22" fill="#fff" transform="rotate(-88.6 230.584 630.899)"></rect><rect width="1.02" height="49.09" x="394.78" y="559.06" fill="#fff" transform="rotate(-6.73 395.326 583.613)"></rect><polygon fill="#fff" points="200.28 694.23 200.25 693.2 260.66 690.98 263.42 675.93 264.42 676.11 261.51 691.98 200.28 694.23"></polygon><path fill="#db3448" d="M279.38 361.62a34.93 34.93 0 01-15.56-29.7 19.44 19.44 0 012.05-8.81c1.69-3 4.42-4.78 7-6.39.62-.36 1.23-.74 1.84-1.11 0 0-5.48 30.41 8.3 35.43C288.54 353 285.28 357.27 279.38 361.62zM372.54 458.92l-1 0c1.75-91.74-25.44-104.58-37.21-105.84a3.44 3.44 0 01-.85-.15l.39-.94a4.46 4.46 0 00.57.07C346.47 353.33 374.31 366.33 372.54 458.92z"></path><path fill="#fff" d="M282.55,391.16c-2.6-7.64-2.3-14.72.88-21,6.43-12.78,22.72-18.12,22.89-18.17l.31,1c-.16.05-16.06,5.27-22.29,17.67-3,6-3.33,12.86-.82,20.23Z"></path><path fill="#f8cdab" d="M525.44,558.58s25-9.49,40.07-17.14,53.87-30.77,51.35-34.2a3.51,3.51,0,0,0-5.42-.81s8.25-3.64,7.95-6.54,1.38-7.79-35,4.3-82.87,17.94-87.8,28.53C476,576.91,525.44,558.58,525.44,558.58Z"></path><path fill="#f8cdab" d="M500.27,525.59s64.53-20,77.06-23.27c9.42-2.46,15.71,5.33,10.41,6.6-14,3.36-33.37,21-56.2,26.45l-33.77-7.47A4.18,4.18,0,0,1,500.27,525.59Z"></path><path fill="#ec905d" d="M531.71,536.06c12.92-3.08,24.68-10,35-16.11,8.11-4.77,15.12-8.9,21.14-10.34a2.89,2.89,0,0,0,2.38-1.94,3.72,3.72,0,0,0-1.29-3.53c-2.16-2.22-6.66-3.86-11.84-2.51-12.4,3.24-76.45,23.09-77.09,23.29a4.86,4.86,0,0,0-2.93,2.69l1.29.57a3.47,3.47,0,0,1,2.07-1.92c.63-.19,64.64-20,77-23.26,4.63-1.21,8.6.19,10.47,2.12a2.49,2.49,0,0,1,.95,2.16c-.16.56-.83.83-1.35,1-6.23,1.49-13.32,5.67-21.53,10.5-10.29,6-21.95,12.92-34.67,16Z"></path><path fill="#112b82" d="M443.86,679.68a31.22,31.22,0,0,0,.57,6,31.94,31.94,0,0,0,11.12,18.68,31.47,31.47,0,0,0,9.61,5.38c.43.16.86.3,1.29.43a31.83,31.83,0,0,0,39.28-19.91l41-116.87L555.33,549l-3.44-1.2L499.6,529.42l-1-.36h0l-3.28-1.15-25.7,73.18-23.91,68A31.92,31.92,0,0,0,443.86,679.68Z"></path><path fill="#091d5a" d="M555.63,548.16l-60.9-21.38S543.42,555,548.07,569Z"></path><path fill="#fff" d="M452.81,650.23c-.52-12.82,15.61-47.88,16.3-49.37l.92.43c-.16.36-16.71,36.32-16.2,48.9Z"></path></g></svg>