<svg xmlns="http://www.w3.org/2000/svg" enable-background="new 0 0 2000 2000" viewBox="119.984 138.687 1771.872 1723.433" id="marketing-team-working-on-brand-marketing"><path fill="#eaeff8" fill-rule="evenodd" d="M987.5,379.3c179.9,0,159.3,317.6,289.2,414.4c171.9,128.1,467.5,64.7,467.5,284.6    c0,386.1-383.5,526-801.4,526c-417.9,0-774.5-214.1-650-599.2C417.2,620,569.6,379.3,987.5,379.3z" clip-rule="evenodd"></path><path fill="#d2dfee" fill-rule="evenodd" d="M1005.9,1718.5c376.4,0,683.4-10.6,683.4-23.7c0-13-307-23.7-683.4-23.7c-376.4,0-683.4,10.6-683.4,23.7    C322.5,1707.8,629.5,1718.5,1005.9,1718.5z" clip-rule="evenodd"></path><path fill="#61a0e0" fill-rule="evenodd" d="M522.4 1564.5c31-11.7 46.6-36.3 46.6-62.8 0-23.8-11-43.2-28.4-54.9-20.1-14-45-18.5-80.2-18.5-28.4 0-57.2 2.6-73.8 6.1v265.4h163c1.1-.9 2.2-1.8 3.2-2.7 17-15.1 26.5-37.1 26.5-59.8 0-37.1-24.2-62.8-56.8-71.2V1564.5L522.4 1564.5zM442.1 1549v-77.2c4.9-1.1 12.5-1.9 24.6-1.9 25 0 46.6 9.5 46.6 38.2 0 23.8-18.9 40.9-50.7 40.9H442.1L442.1 1549zM442.1 1589.9h20.8c28.8 0 57.5 12.1 57.5 45.8 0 32.9-25.7 46.6-56 46.6-9.8 0-16.7-.4-22.3-1.5V1589.9zM768.6 1545.6c32.1-12.5 58.9-43.3 58.9-85.2 0-91.9-87.4-97.2-130.7-97.2-33.4 0-65.6 3.1-88.3 7.1v329.4H674v-130h22.3c31.2 0 45 13.8 54 58 6.3 32.5 12.8 57.9 17.8 72.1h67.8c-6.1-18-13.6-51.9-21.7-85.4-8-34.8-21.4-58-45.5-67.3V1545.6L768.6 1545.6zM674 1520.7v-104.4c5.4-1.8 15.6-2.7 30.3-2.7 24.1 0 57.1 8.5 57.1 52.6 0 32.6-22.7 54.4-60.2 54.4H674zM999.2 1451.4h-70.4l-70.4 248.3h55.8l8.9-34.1h78l9.2 34.1h58.3L999.2 1451.4 999.2 1451.4zM931 1623.2l17.4-66.6c4.2-17 9.1-40.9 12.9-59.1h1.1c3.8 17.8 8.7 41.3 13.2 59.4l17.4 66.2H931zM1300.4 1447.7h-50.7v87.4c0 47.3 1.5 88.6 4.9 125.7h-.8c-11.7-30.3-28-65.9-43.5-95l-61.3-118.1h-60.6v252h50.7v-50.2c0-51.9-1.1-92.7-3.4-128.7h1.5c12.1 31.8 29.1 67.8 44.7 97.7l42.2 81.3h76.3V1447.7zM1544.3 1699.7c2.6-2 5.1-4.1 7.5-6.3 28.5-25.6 56.1-72.1 56.1-151.9 0-67.2-20.8-113.2-56.1-142.2-31-25.6-73-38.7-135-38.7-36.3 0-70.1 2.9-96.3 7.7v331.3H1544.3L1544.3 1699.7zM1391.7 1419.7c7.7-1.5 18.9-2.9 33.9-2.9 66.3 0 107.4 41.6 107.4 125.8 0 97.7-45.5 139.8-113.7 139.3-9.7 0-20.3 0-27.6-1.5V1419.7z" clip-rule="evenodd"></path><path fill="#a4d0fc" fill-rule="evenodd" d="M532.7 1564.5c31-11.7 46.6-36.3 46.6-62.8 0-23.8-11-43.2-28.4-54.9-20.1-14-45-18.5-80.2-18.5-28.4 0-57.2 2.6-73.8 6.1v265.4h163c1.1-.9 2.2-1.8 3.2-2.7 17-15.1 26.5-37.1 26.5-59.8 0-37.1-24.2-62.8-56.8-71.2V1564.5L532.7 1564.5zM452.4 1549v-77.2c4.9-1.1 12.5-1.9 24.6-1.9 25 0 46.6 9.5 46.6 38.2 0 23.8-18.9 40.9-50.7 40.9H452.4L452.4 1549zM452.4 1589.9h20.8c28.8 0 57.5 12.1 57.5 45.8 0 32.9-25.7 46.6-56 46.6-9.8 0-16.7-.4-22.3-1.5V1589.9zM778.8 1545.6c32.1-12.5 58.9-43.3 58.9-85.2 0-91.9-87.4-97.2-130.7-97.2-33.4 0-65.6 3.1-88.3 7.1v329.4h65.6v-130h22.3c31.2 0 45 13.8 54 58 6.3 32.5 12.8 57.9 17.8 72.1h67.8c-6.1-18-13.6-51.9-21.7-85.4-8-34.8-21.4-58-45.5-67.3V1545.6L778.8 1545.6zM684.3 1520.7v-104.4c5.4-1.8 15.6-2.7 30.3-2.7 24.1 0 57.1 8.5 57.1 52.6 0 32.6-22.7 54.4-60.2 54.4H684.3zM1009.5 1451.4h-70.4l-70.4 248.3h55.8l8.9-34.1h78l9.2 34.1h58.3L1009.5 1451.4 1009.5 1451.4zM941.3 1623.2l17.4-66.6c4.2-17 9.1-40.9 12.9-59.1h1.1c3.8 17.8 8.7 41.3 13.3 59.4l17.4 66.2H941.3zM1310.7 1447.7H1260v87.4c0 47.3 1.5 88.6 4.9 125.7h-.8c-11.7-30.3-28-65.9-43.5-95l-61.3-118.1h-60.6v252h50.7v-50.2c0-51.9-1.1-92.7-3.4-128.7h1.5c12.1 31.8 29.1 67.8 44.7 97.7l42.2 81.3h76.3V1447.7zM1554.6 1699.7c2.6-2 5.1-4.1 7.5-6.3 28.5-25.6 56.1-72.1 56.1-151.9 0-67.2-20.8-113.2-56.1-142.2-31-25.6-73-38.7-135-38.7-36.3 0-70.1 2.9-96.3 7.7v331.3H1554.6L1554.6 1699.7zM1402 1419.7c7.7-1.5 18.9-2.9 33.9-2.9 66.3 0 107.4 41.6 107.4 125.8 0 97.7-45.5 139.8-113.7 139.3-9.7 0-20.3 0-27.6-1.5V1419.7z" clip-rule="evenodd"></path><path fill="#fc9774" fill-rule="evenodd" d="M1014.6,654c35-18.1,92.3-39.5,130.8-13c26,19.3,79.5,72.5,127.5,137.8c55.6,75.5,105.2,164.3,117.6,188.4    c-11,57.7,26.8,146.9-39.6,187.4c-66.4,40.6-104.9,47.2-104.9,47.2l-7.8-15.7c-16.4-1.2-34.4-7.2-53.2-17.5    c-20.8-1.2-44.8-12-69.6-30.4L979.3,954.7c-31.9-72.9-42.2-141.6-29-184.2c-2.3-45,6.8-80.8,27.8-100.4c3.6-3.5,7.6-6.3,12-8.8    C997.6,657.2,1005.8,654.8,1014.6,654z" clip-rule="evenodd"></path><path fill="#f57a44" fill-rule="evenodd" d="M995.1,1367.1c14.1,8.2,26.5,15.2,35.5,20.2l0.3,0.1c8.7,4.7,19.5,2.3,25.6-5.5l6.4-8.2     c3.5-4.5,5.6-9.9,6.1-15.6l2.2-25l0.7-7.8c0.1-1.8,0.1-3.7-0.3-5.4c-0.5-3-1.8-5.9-3.6-8.3c-1.4-2-3.2-3.8-5.4-5.1     c-0.6-0.4-1.3-0.8-1.9-1.2c-2.3-1.2-4.7-2.5-7.1-3.7c-49.8-27.1-105.9-73.3-129.9-93.9c-7.5-6.4-11-16.3-9.4-26l0.8-4.6l1.7-9.6     l1.3-7.6l1.7-9.7l-2.5-1.8l-23.8,14.2l-15.1,9l-62.1,37.2l-38.3,23l-27,16.2c4,3.8,8,7.3,11.8,10.4c1.6,1.3,3.1,2.6,4.7,3.8     c1.4,1,2.7,2,4,3c39.3,28.5,67.7,23.4,82.6,16.5c0.8-0.4,1.6-0.7,2.3-1.1c4-2.1,8.6-2.3,12.6-0.8l0.1,0c1.8,0.7,3.5,1.8,4.9,3.2     C900.9,1309.7,954.8,1343.5,995.1,1367.1z" clip-rule="evenodd"></path><path fill="#f0662b" fill-rule="evenodd" d="M870.2,1224.5c-20.4,33.3-63.1,49.3-64.9,50c38.6,18.4,74.5-40.8,78.5-44c3.7-2.8,155.4,84.3,187.2,102.6     l0.7-7.8c0.1-1.8,0.1-3.7-0.3-5.4c-0.5-3-1.8-5.9-3.6-8.3c-1.4-2-3.2-3.8-5.4-5.1c-0.6-0.4-1.3-0.8-1.9-1.2     c-2.3-1.2-4.7-2.5-7.1-3.7c-49.8-27.1-105.9-73.3-129.9-93.9c-7.5-6.4-11-16.3-9.4-26l3.8-21.9l1.7-9.8l-2.5-1.8l-23.8,14.2     l-77.2,46.2l-38.3,23l-27,16.2c4,3.8,8,7.3,11.8,10.4c31.7-20,74.6-45.4,85.1-43c5.7,2.1,11.8,2.6,18,2     C869.7,1217.1,872.2,1221.2,870.2,1224.5z" clip-rule="evenodd"></path><path fill="#f57a44" fill-rule="evenodd" d="M654.3,1262.8c3.6,1.6,7.4,3.1,11.4,4.3c6.8,2.2,14.3,3.7,22.3,4.5c29.3,2.2,107.2-38.8,147.9-63.3l0.1-0.1     c0,0,4.2-5.9,6.9-4.3c0.9,0.5,8.7-0.6,18.1-2.9l0.1,0c3.5-0.8,7.2-1.8,10.9-2.9l0.4-0.2c14.7-4.4,29-10.5,27-16.3l0,0l0-0.1     l-0.1-0.1c-0.7-2.4,0.4-6.2,2.6-10.5c1-2.1,2.4-4.3,3.8-6.7c4.1-6.5,9.6-13.7,14.7-20c7.6-9.4,14.3-16.7,14.3-16.7l-26.8-16.2     l0,0l-22-13.2l-76.7-118.5l-1.8-2.9l-0.1,0c-1.3-0.2-15.4-1.9-37.5,12.2c-2.2,1.4-5.3,3.4-8.9,5.9     c-20.5,13.7-61.2,41.8-91.7,62.9l-0.7,0.5c-16,11-29.1,20.1-34.7,24c-2,1.3-3,2.1-3,2.1c0,0-10.6,7.7-20.9,19.9     c-9.2,10.9-18.1,25.4-18.9,41.3c-0.5,9.4,0.4,22.6,3.7,37.1c2.1,9.1,5.1,18.6,9.4,28C613.7,1231.6,629.4,1251.5,654.3,1262.8z" clip-rule="evenodd"></path><path fill="#f57a44" fill-rule="evenodd" d="M701.2,1252.4c9.1,4.9,40.6-8.1,72.3-23.8l0.1,0c9.7-4.8,19.4-9.9,28.5-14.7l0.1-0.1     c5.9-3.2,11.6-6.3,16.8-9.1c4.5-2.5,4.1-9.2-0.8-11c-0.8-0.3-1.6-0.4-2.5-0.4c-42.1,2-67.8-78-74-81.9     c-6.7-4.2-103.6,39.8-109.6,65.1c-0.4,1.7-0.4,3.3,0,4.8c1.2,3.8,3.2,7.8,5.8,12c1.5,2.4,3.1,4.8,5,7.2l0,0     c1.5,2.1,3.3,4.2,5,6.2c10.9,12.8,25.2,25.8,37.5,35.2c4.7,3.5,9,6.5,12.9,8.8C699.3,1251.4,700.3,1251.9,701.2,1252.4     L701.2,1252.4z M604.1,1210.6c-4.3-9.4-7.3-18.9-9.4-28c-3.3-14.5-4.2-27.7-3.7-37.1c0.8-15.9,9.7-30.4,18.9-41.3     c-7.4,21-10.9,40.5-9.4,60.3l0,0.7c0.5,6,1.4,12,2.8,18c1.6,7.1,3.8,14.2,6.7,21.5c1.6,3.9,3.3,7.9,5.3,11.9     c0.5,1.2,1.1,2.4,1.7,3.6c0.5,0.9,0.9,1.8,1.5,2.7c10.3,18.5,26.6,29.1,42.3,35c4.9,1.9,9.8,3.4,14.3,4.4c4.9,1.2,9.6,2,13.6,2.5     c1.6,0.2,2.1-2,0.6-2.6c-2.3-0.9-4.8-1.9-7.5-3.2c-3.8-1.8-7.9-4.2-12.2-7.2c-7.3-5.1-15.2-12-23.1-21.5     c-4.5-5.4-8.5-10.7-12.2-16l0,0c-1.4-2.1-2.8-4.2-4.1-6.2c-1.8-3-3.5-6-5.1-8.9c-3.1-5.9-5.7-11.9-7.7-18     c-2.4-7.3-4-14.7-4.8-22.6c-0.1-0.6-0.1-1.2-0.2-1.8c-1.1-12.6-0.1-26,3.2-40.8c2.5-11.4,9.3-22.8,18.1-33.6     c5.6-3.9,18.7-13,34.7-24c-22.5,23.2-33.1,40.4-37.9,52.5c-3.5,8.9,6.7,17,14.7,11.7c29.7-19.7,88.1-61.7,99.8-94.8     c15.6-43.9,60.4-50.5,62.2-50.8h0.1c0,0,0.3,0.7,1,2.1c5.1,11.2,29.3,65.6,40.3,116.6l0.1,0.1c8.5,39.2,9.1,76.5-12.6,90.7     l12.2,1.9c1.3-0.8,2-1.2,2-1.2s27.3-8.8,51.7-15.9c-2.2,4.4-3.3,8.2-2.6,10.5l0.1,0.1l0,0.1l0,0c2.1,5.8-12.2,11.9-27,16.3     l-0.4,0.2c-3.7,1.1-7.4,2-10.9,2.9l-0.1,0c-9.4,2.3-17.2,3.5-18.1,2.9c-2.7-1.6-6.9,4.3-6.9,4.3l-0.1,0.1     c-40.7,24.5-118.6,65.5-147.9,63.3c-8.1-0.9-15.5-2.4-22.3-4.5c-4-1.3-7.8-2.7-11.4-4.3C629.4,1251.5,613.7,1231.6,604.1,1210.6z     " clip-rule="evenodd"></path><path fill="#ed5d1f" fill-rule="evenodd" d="M911.5,1171.2c0,0-9.6,14.9-37.2,18.6c-27.7,3.7-55.3-6.1-76-24.8c-35.4-32-70.9-92.5-24.1-159     L911.5,1171.2z" clip-rule="evenodd"></path><path fill="#f57a44" fill-rule="evenodd" d="M640.3,1106.8c-1.5,4.8,3.9,8.7,8,5.8c19.6-14.1,72.7-54.3,89.9-87.6c6.8-13.2,14.9-22.9,22.7-30.2     c-20.5,13.7-61.2,41.8-91.7,62.9C650.5,1083.7,643,1098.4,640.3,1106.8z" clip-rule="evenodd"></path><path fill="#fc9774" fill-rule="evenodd" d="M789.8,991.7l-11,8.4c-27.7,32.6-20.4,72-20.4,72l11.7,33.8c0,0,21.2,32,21.8,31.5     c0.6-0.5,33.6,31.7,33.6,31.7l18.8,8.4c3.9,3.3,13,4.3,20.1,4.4c5.4,0.1,10.8-0.6,15.9-2.1l24.2-7.1l0.1,0l0.2-0.1l11.9-3.5     c32.1-8.6,122.3-28.4,211.8-5.3c0,0-5.5-7.2-11.1-14.4l0.9-6.4l-5.7,0.2c-3.8-4.8-6.8-8.5-7.1-8.3c-0.3,0.3-10.4-5.9-20.3-12     c-9.4-25-84.7-160.2-131-242.6L961,860l-29-19.3L918.1,816C918.1,816,881.8,918.4,789.8,991.7z" clip-rule="evenodd"></path><path fill="#f0662b" fill-rule="evenodd" d="M801.4,1156.9c10.4,8.3,22,15.3,34.5,19.9c11.7,4.3,25.4,7.2,37.8,5c0,0-60.4,0.2-99.1-76.8     c-0.3-0.7-0.7-1.3-1-2c-1-1.9-1.9-3.7-2.7-5.5c-21.8-47.4-5.6-79.3,3.2-91.7c-14.4,18.6-19.8,42-17.6,65.5     c1,11.3,3.6,22.4,7.3,33.1c0.5,1.5,1,3,1.6,4.4l0.5,1.3C773.3,1129.4,785.3,1144,801.4,1156.9z" clip-rule="evenodd"></path><path fill="#fc9774" fill-rule="evenodd" d="M973.1,985.5c-30.4-69.5-34.2-133.9-8.3-158.1c2.2-2.1,4.7-3.9,7.3-5.4c38.6-21.3,109,32.4,157.1,119.8     c44,79.7,54.3,160,26.6,189.7c-2.7,2.9-5.8,5.3-9.2,7.2c-18.9,10.4-45.4,2.9-73.3-17.8L973.1,985.5z" clip-rule="evenodd"></path><path fill="#f0662b" fill-rule="evenodd" d="M1111.3,857.2l-123.1,64c0,0,26.5,73.3,69.4,123.3l117.3-68.2c1.6-0.6,3-1.3,4.5-2.1     c5.4-3.3,9.2-8.4,11.5-14.8l0.1-0.1c5.9-16.4,1.9-41-12-63.9c-18.6-30.5-48.1-46.8-67.4-37.7L1111.3,857.2z" clip-rule="evenodd"></path><path fill="#ed5d1f" fill-rule="evenodd" d="M1181.6,972.4c5.4-3.3,9.2-8.4,11.5-14.8l0-0.1c5.9-16.4,1.9-41-12-63.9c-19.4-31.8-50.7-48.1-69.8-36.4     c-3.6,2.2-6.5,5.1-8.7,8.8c-9.7,15.9-6.7,44.1,9.1,70C1131.2,967.7,1162.5,984.1,1181.6,972.4z" clip-rule="evenodd"></path><path fill="#f27038" fill-rule="evenodd" d="M1184.5,966.2c3.5-2.1,6.4-5.1,8.6-8.6l0-0.1c5.9-16.4,1.9-41-12-63.9c-19.4-31.8-50.7-48.1-69.8-36.4     c-3.6,2.2-6.5,5.1-8.7,8.8c-5.9,16.4-1.9,41,12,63.8C1134.1,961.6,1165.4,977.9,1184.5,966.2z" clip-rule="evenodd"></path><path fill="#fbbfa8" fill-rule="evenodd" d="M1174.8,942.1c7.9-4.6,9.8-17,5.5-30.3c-1.2-3.9-2.9-7.8-5.1-11.6c-10-17.2-26.4-26.3-36.6-20.4     c-1.8,1-3.2,2.4-4.4,4.1c-5.6,8.2-4.4,23.5,3.9,37.8C1148.1,938.9,1164.5,948,1174.8,942.1z" clip-rule="evenodd"></path><path fill="#ffe2dc" fill-rule="evenodd" d="M1176,915.9c1.8-1,3.2-2.4,4.3-4.1c-1.2-3.9-2.9-7.8-5.1-11.6c-10-17.2-26.4-26.3-36.6-20.4     c-1.8,1-3.2,2.4-4.4,4.1c1.2,3.8,2.9,7.8,5.2,11.6C1149.4,912.7,1165.8,921.9,1176,915.9z" clip-rule="evenodd"></path><path fill="#ed5d1f" fill-rule="evenodd" d="M1137.8,881.7l1.3-0.9c9.7-5.6,25.4,3.3,35.1,20c9.7,16.6,9.7,34.7,0,40.3c-4.6,2.7-10.7,2.1-17.3-1.5     c-6.7-3.8-13.1-10.3-17.8-18.5C1129.9,905.3,1129.5,888.1,1137.8,881.7L1137.8,881.7z M1176.8,942.1c9.3-7.1,9.1-25.6-0.7-42.5     c-10.3-17.7-27.4-27-38.2-20.8c-10.7,6.3-11.1,25.7-0.8,43.5c4.9,8.5,11.6,15.4,18.7,19.3c7.3,4,14.2,4.6,19.5,1.5     C1175.8,942.8,1176.3,942.5,1176.8,942.1z" clip-rule="evenodd"></path><path fill="#f57a44" fill-rule="evenodd" d="M1297.9,827.9c-80.4-135.9-206.8-210.1-282.3-165.8c-70.9,41.6-71.7,172.7-5.1,301c4.4,8.4,9,16.8,14,25.2    c80.4,135.9,206.8,210.1,282.4,165.8c65.5-38.5,71.2-153.6,18.9-272.1C1317.9,864,1308.6,845.8,1297.9,827.9L1297.9,827.9z     M985.7,1008.1c-5.2-8.8-10.1-17.6-14.6-26.5c-78.5-151.6-72.7-309.9,16.7-362.4c94.6-55.5,247,28.6,340.5,187.8    c10.8,18.4,20.3,37,28.6,55.5c63.4,142.3,53,284.2-30.7,333.3C1231.6,1251.4,1079.2,1167.3,985.7,1008.1z" clip-rule="evenodd"></path><path fill="#f57a44" fill-rule="evenodd" d="M1320.8,1183.2c70.9-41.6,71.7-172.9,5-301.2c-7.9-18.1-17.2-36.2-27.9-54.2    c-80.4-135.9-206.8-210.1-282.3-165.8c-70.9,41.6-71.7,172.7-5.1,301c8,18.1,17.3,36.2,28,54.3    C1118.9,1153.3,1245.3,1227.5,1320.8,1183.2L1320.8,1183.2z M985.7,1008.1c-5.2-8.8-10.1-17.6-14.6-26.5    c-63.4-142.3-53-284.2,30.7-333.3c94.6-55.5,247,28.6,340.5,187.8c5.2,8.8,10.1,17.6,14.6,26.5c63.4,142.3,53,284.2-30.7,333.3    C1231.6,1251.4,1079.2,1167.3,985.7,1008.1z" clip-rule="evenodd"></path><g><path fill="#ffb27d" fill-rule="evenodd" d="M631.3,1034.6c0,0,5.6-6.8,8.7-7.8c3-1,8.9-5.5,9.6-3.6c0.8,1.9-3.9,4.7-3.7,6.9c0.2,2.1,14.9,5.6,14.8,7.8    c-0.1,2.3-3.5,7.7-9.1,7.1c-5.6-0.6-19.8-4-22.7-2.5C626.1,1043.9,631.3,1034.6,631.3,1034.6z" clip-rule="evenodd"></path><path fill="#61a0e0" fill-rule="evenodd" d="M479.8,1001.4c8.3,11.1,18,19.9,28,26.9c31.7,22.1,66.1,25.3,66.1,25.3c8.2-2.6,33.6-5.4,48.5-7.8h0    c6.5-1,11.1-2,11.4-2.9l-0.4-13c0,0-54.9-2.9-64-7.1c-14.3-12.4-27-28.4-35.3-40.9c-7-10.6-14.8-18.4-27.6-23    C487.9,952.2,454.1,966.8,479.8,1001.4z" clip-rule="evenodd"></path><path fill="#4f8ecc" fill-rule="evenodd" d="M505,1020.1l2.8,8.2c31.7,22.1,66.1,25.3,66.1,25.3c6.6,0,33.6-5.4,48.5-7.8c-0.6,0-40.7,3.2-49.6,2.3    c-8.9-0.9-50.6-37-50.6-37L505,1020.1z" clip-rule="evenodd"></path><path fill="#284191" fill-rule="evenodd" d="M540.9 1433.1h-60.7c-4.4-3 1.2-31.8 1.2-31.8s16.6-6.3 19.4 6.5c2.9 12.8 21.1 16.8 30.7 18.4C538.1 1427.3 540.2 1430.9 540.9 1433.1zM450.8 1433.1h-60.7c-4.3-3 1.2-31.8 1.2-31.8s16.6-6.3 19.4 6.5c2.9 12.8 21.1 16.8 30.7 18.4C448.1 1427.3 450.2 1430.9 450.8 1433.1z" clip-rule="evenodd"></path><path fill="#4567c6" fill-rule="evenodd" d="M524.5,1139c0,0-2.7,34-5.9,75c-4.4,55.6-16.1,193.4-16.1,193.4s-7.7,6.6-24.8,3c0,0-14.5-47.5-18.9-101.8    c-0.1-0.9-0.1-1.8-0.2-2.7c-4-55.2-10.3-171.5-10.3-171.5L524.5,1139z" clip-rule="evenodd"></path><path fill="#3b5bb3" fill-rule="evenodd" d="M525.5,1127.2c0,0-3.7,45.8-6.9,86.7l-59.8,94.6c-0.1-0.9-0.1-1.8-0.2-2.7c-4-55.2-10.3-171.5-10.3-171.5    L525.5,1127.2z" clip-rule="evenodd"></path><path fill="#4567c6" fill-rule="evenodd" d="M508,1127.2c0,0-43.3,107.9-57.2,148.8c-9.9,29.1-37.7,131.3-37.7,131.3s-12.1,3.7-22.3-3.4    c0,0-10.4-104.4,10.6-133.9c11.1-15.6,2.8-162.4,47.8-163.6C494.2,1105.2,508,1127.2,508,1127.2z" clip-rule="evenodd"></path><path fill="#ffb27d" fill-rule="evenodd" d="M488.7,968.2c-6.6,3.5-13.1,3.7-18.7,2.5c-5.1-1.1-9.5-3.3-12.7-5.3c-3.2-2.1-5.1-3.8-5.1-3.8s0.2-0.3,0.6-1    c2-3.3,7.9-15.4,5.2-34.7c0-0.3,1.9,0.1,4.8,0.8c8.6,2,25.9,6.9,26.7,7.2h0c0,0,0.2,4.1,0.9,11.3c0.1,0.6,0.1,1.3,0.2,2    c0.1,0.9,0.2,1.8,0.3,2.7C491.8,957.4,488.7,968.2,488.7,968.2z" clip-rule="evenodd"></path><path fill="#f08261" fill-rule="evenodd" d="M490.5,945.1c-12.8,2.9-32-16-32-16c1.4-1,2.9-1.9,4.4-2.5c8.6,2,25.9,6.9,26.7,7.2h0    C489.6,933.8,489.8,937.9,490.5,945.1z" clip-rule="evenodd"></path><path fill="#ffb27d" fill-rule="evenodd" d="M494.4,935.1c0,0-5.5,2-12.4,2.9c-10.2,1.4-23.6,0.6-27.8-11.8c-7.1-20.7-16.1-33.2,4.7-41.6    c11.2-4.5,18.3-4.8,23.1-3c4.2,1.5,6.7,4.5,8.6,7.4C494.7,895.4,502.9,931.5,494.4,935.1z" clip-rule="evenodd"></path><path fill="#284191" fill-rule="evenodd" d="M473.1,893.1c-5.2,2.3-6.1,11-6.2,13.8c-0.1,2.8-0.5,5.1-7.5,3.4c-1.2-0.3-2-0.2-2.6,0.2    c-2.9,1.7,0.8,10.1,1.9,11.9c0,0,1.6,6-2,8.9c-0.4,0.4-7.5,3.4-24.5-22.6c-2.7-4.1-5.2-13.8-1.1-22.6c-6.6-23.6,63-32.3,71.9-16.3    C519.3,899,466.2,891.1,473.1,893.1z" clip-rule="evenodd"></path><path fill="#61a0e0" fill-rule="evenodd" d="M531.3,1109c-0.9,12.4-3.5,21.2-9.3,21.2c0,0-25.5,9-55.9,9.2c-5.9,0-14.4-1.1-21.4-2.3    c-7.1-1.2-12.8-2.4-12.8-2.4c-6.1-1.4-12.9-5.2-12-12.2c0.5-3.9,0.9-9.1,1.1-15.1c0.7-16.2,0.6-38.4,0.6-59.8    c0.1-13.1,0.2-25.8,0.6-36.6c0,0-6-42.2,0.7-49.1c7.8-8.1,30.8-10.6,32.2-10.3c0.4-0.1,0.9-0.2,1.3-0.3c0,0,19.5,11,34.1,2.9    c0,0,0.1,0,0.4,0.1c3.5,0.6,21.2,4.6,27.3,11.1c2.1,2.2,10.5,15.8,10.7,30.8c0.3,20.8-0.5,44.5-0.5,44.5c0.2,3.4,0.6,7.7,1,12.7    c0.4,5.3,0.9,11.3,1.3,17.6c0.2,3.1,0.4,6.4,0.5,9.6C531.8,1090.7,531.9,1100.7,531.3,1109z" clip-rule="evenodd"></path><path fill="#4f8ecc" fill-rule="evenodd" d="M455.4 951.9c0 0 21.6 22.3 37.1 17.7 0 0 2.1-3-4.9-4C480.6 964.7 473.1 965 455.4 951.9zM441.7 1030.3c0 0 0 60.3-20.5 77.3.7-16.2.6-38.4.6-59.8L441.7 1030.3z" clip-rule="evenodd"></path><path fill="#ffb27d" fill-rule="evenodd" d="M378.4,1143.2c0,0-10.5,16.4-11.1,22.7c-0.4,4.3,0.6,21.1,2.7,21.2c3,0.1,6-10.4,7.2-13.1    c1.2-2.7,2.5-4.9,3.7-4.9c1.2,0-2.5,10.5,0,9.3c2.5-1.2,6.8-10.9,7.2-13.2c0.4-2.3-2.3-9.8-1-12.8    C388.5,1149.5,378.4,1143.2,378.4,1143.2z" clip-rule="evenodd"></path><path fill="#61a0e0" fill-rule="evenodd" d="M425.1,959.8c0,0-14.1,6.7-26,56.2c-8.9,37.3-26.1,132.5-26.1,132.5l14.5,6c0,0,53-121.7,60.6-138.8    C455.7,998.5,425.1,959.8,425.1,959.8z" clip-rule="evenodd"></path><path fill="#284191" fill-rule="evenodd" d="M488 880.5c6.4 2 9.1 5.4 8.1 9.9-7.7 6-15.9 8.1-24.5 6.5C476.3 895.5 481.8 890 488 880.5zM433.8 891.2c1.5-3 1.2-5.1-.8-6.3-4.8.7-8.3 2.9-10.6 6.6C424.4 890.3 428.3 890.2 433.8 891.2z" clip-rule="evenodd"></path><path fill="#284191" fill-rule="evenodd" d="M441.1,890.2c-0.8,4.4-2.8,6.5-5.9,6.2c-4.6-4.6-6.8-9.8-6.4-15.7C430.1,883.7,434.2,886.9,441.1,890.2z" clip-rule="evenodd"></path><path fill="#125aa3" fill-rule="evenodd" d="M485.9,903.8c1.9-1.3,3.4-2.6,5.4-3.9c2.9-1.9,4.3,0,6.5-0.3c-0.5-0.2-0.5-0.3-1.2-0.7     c-3.6-1.9-6-0.7-9,1.7C485.9,901.9,485.4,901.5,485.9,903.8z" clip-rule="evenodd"></path><path fill="#fff" fill-rule="evenodd" d="M491.4,901.7c1.1-0.3,2.2,0.4,2.5,1.5c0.3,1.1-0.4,2.2-1.5,2.5c-1.1,0.3-2.2-0.4-2.5-1.5      C489.6,903.1,490.3,902,491.4,901.7z" clip-rule="evenodd"></path><path fill="#125aa3" fill-rule="evenodd" d="M492.3 905.7c1.1-.3 1.8-1.4 1.5-2.5-.3-1.1-1.4-1.8-2.5-1.5-.5.1-.8.4-1.1.7l.1-.1c.4-.1.7.1.8.5.1.4-.1.7-.5.8-.4.1-.7-.1-.8-.5l0-.1c-.1.3-.1.7 0 1.1C490.1 905.3 491.2 905.9 492.3 905.7zM477.4 905.9c-2.2-.3-4.3-.7-6.6-.9-3.4-.3-3.8 2-5.9 2.8.4-.4.3-.5.7-1.2 2.3-3.4 5-3.4 8.8-2.7C476.5 904.2 476.7 903.7 477.4 905.9z" clip-rule="evenodd"></path><path fill="#fff" fill-rule="evenodd" d="M471.5,906.6c-1.1,0.3-1.8,1.4-1.5,2.5c0.3,1.1,1.4,1.8,2.5,1.5c1.1-0.3,1.8-1.4,1.5-2.5      C473.7,907,472.6,906.3,471.5,906.6z" clip-rule="evenodd"></path><path fill="#125aa3" fill-rule="evenodd" d="M472.5,910.6c-1.1,0.3-2.2-0.4-2.5-1.5c-0.3-1.1,0.4-2.2,1.5-2.5c0.5-0.1,0.9-0.1,1.3,0.1l-0.2,0      c-0.4,0.1-0.6,0.4-0.5,0.8c0.1,0.4,0.4,0.6,0.8,0.5c0.4-0.1,0.6-0.4,0.5-0.8l0-0.1c0.2,0.3,0.4,0.6,0.5,0.9      C474.3,909.2,473.6,910.3,472.5,910.6z" clip-rule="evenodd"></path><path fill="none" stroke="#fc9774" stroke-linecap="round" stroke-miterlimit="2.613" stroke-width=".097" d="M484,908.3c2.9,4.4,4.3,6.9,4,7.6c-0.5,0.8-1.2,1.3-2,1.4" clip-rule="evenodd"></path><path fill="#fff" fill-rule="evenodd" d="M493.1,922.8c-3.3,4.4-7.2,5-11.7,1.9C486.6,924.3,490.5,923.5,493.1,922.8z" clip-rule="evenodd"></path></g><g><rect width="119" height="63" x="1392.2" y="1158.7" fill="#fff" fill-rule="evenodd" clip-rule="evenodd"></rect><rect width="119" height="27" x="1392.2" y="1239.7" fill="#fff" fill-rule="evenodd" clip-rule="evenodd"></rect><path fill="#4f8ecc" fill-rule="evenodd" d="M1455.3,1165.3c-2.4-3.9-4.7-6.7-6.7-8.4c9.5-5.1,14.7-10.8,15.8-16.9c1.4,1.2,2.6,2.7,3.5,4.4    C1464.4,1152.8,1460.2,1159.8,1455.3,1165.3z" clip-rule="evenodd"></path><path fill="#4f8ecc" fill-rule="evenodd" d="M1442,1165.3c2.4-3.9,4.7-6.7,6.7-8.4c-9.5-5.1-14.7-10.8-15.8-16.9c-1.4,1.2-2.6,2.7-3.5,4.4    C1432.9,1152.8,1437.1,1159.8,1442,1165.3z" clip-rule="evenodd"></path><path fill="#8bbae9" fill-rule="evenodd" d="M1525.7,1173.4c-10.2-14.1-29.5-23.8-57.8-29c-3.5,8.4-7.7,15.3-12.6,20.9c-2.4-3.9-4.7-6.7-6.7-8.4    c-2,1.7-4.2,4.5-6.7,8.4c-4.9-5.5-9.1-12.5-12.6-20.9c-28.3,5.2-47.6,14.9-57.8,29c-7.8,22.9-13,41-15.5,54.4    c8.3,1.8,17.8,3.9,28.6,6.3c-1.4,25.8-1.8,47.8-1.1,66.1c15.1,4.4,36.2,12.2,61.3,22.7c1.3,0,2.5-0.1,3.7-0.2    c1.2,0.1,2.4,0.1,3.7,0.2c25.1-10.5,46.2-18.3,61.3-22.7c0.7-18.3,0.3-40.3-1.1-66.1c10.8-2.4,20.3-4.5,28.6-6.3    C1538.7,1214.4,1533.5,1196.3,1525.7,1173.4z" clip-rule="evenodd"></path><path fill="#61a0e0" fill-rule="evenodd" d="M1508 1190.9c2 12.9 3.5 27.3 4.5 43.2 1.4-.3 2.7-.6 4-.9C1514.8 1223.3 1512 1209.2 1508 1190.9zM1389.3 1190.9c-2 12.9-3.5 27.3-4.5 43.2-1.4-.3-2.7-.6-4-.9C1382.5 1223.3 1385.4 1209.2 1389.3 1190.9z" clip-rule="evenodd"></path><path fill="#4567c6" fill-rule="evenodd" d="M1507.2,1350.7c3,7.7-2.5,20.2-6.3,22.7c-69.1-6.9-112.3-16.7-138.9-30.1c-7.9-4.4-21.8-6.3-30.2-11.9    c-20.4-21.5-5.1-49.8,15.1-48.4c14.2,2.7,20.8,6.8,27.5,14.8C1398.6,1303.3,1447.9,1322.8,1507.2,1350.7z" clip-rule="evenodd"></path><path fill="#284191" fill-rule="evenodd" d="M1580.7,1362.2c2.8,18.9-20.8,21.9-69.2,13.6c20.4-6.7,23.1-12.7,7.9-22.1    C1561.6,1346.1,1580.8,1346.2,1580.7,1362.2L1580.7,1362.2z M1316.6,1362.2c-2.8,18.9,20.8,21.9,69.2,13.6    c-20.4-6.7-23.1-12.7-7.9-22.1C1335.8,1346.1,1316.5,1346.2,1316.6,1362.2z" clip-rule="evenodd"></path><path fill="#ffb27d" fill-rule="evenodd" d="M1501.7 1372.7c4.1.8 7.3 1.8 9.8 3.2 20.4-6.7 23.1-12.7 7.9-22.1-3.4.2-7.3-.3-11.7-1.3C1509.3 1359.5 1505.2 1369.3 1501.7 1372.7L1501.7 1372.7zM1395.6 1372.7c-4.1.8-7.3 1.8-9.8 3.2-20.4-6.7-23.1-12.7-7.9-22.1 3.4.2 7.3-.3 11.7-1.3C1388 1359.5 1392.2 1369.3 1395.6 1372.7zM1538.6 1270.9c1.7-13.6 1.3-27.7-1.2-42.3-6.3 1.4-13.2 2.9-20.8 4.6-1.3.3-2.7.6-4 .9 1.4 25 1.8 46.5 1.2 64.4C1526.1 1288.5 1534.4 1279.3 1538.6 1270.9zM1358.7 1270.9c-1.7-13.6-1.3-27.7 1.2-42.3 6.3 1.4 13.2 2.9 20.8 4.6 1.3.3 2.7.6 4 .9-1.4 25-1.8 46.5-1.2 64.4C1371.2 1288.5 1362.9 1279.3 1358.7 1270.9z" clip-rule="evenodd"></path><path fill="#f08261" fill-rule="evenodd" d="M1519.7,1267.3c-0.1-9.8-0.5-21.3-1.1-34.6c-0.7,0.2-1.4,0.3-2.1,0.5c-1.3,0.3-2.7,0.6-4,0.9    c0.9,15.4,1.3,29.5,1.4,42.2c1.1-1.3,2.4-2.9,3.9-4.6c4.3-1.8,8.6-2.7,12.9-2.7C1525.9,1267.4,1522.2,1266.9,1519.7,1267.3    L1519.7,1267.3z M1377.6,1267.3c0.1-9.8,0.5-21.3,1.1-34.6c0.7,0.2,1.4,0.3,2.1,0.5c1.3,0.3,2.7,0.6,4,0.9    c-0.9,15.4-1.3,29.5-1.4,42.2c-1.1-1.3-2.4-2.9-3.9-4.6c-4.3-1.8-8.6-2.7-12.9-2.7C1371.4,1267.4,1375.1,1266.9,1377.6,1267.3z" clip-rule="evenodd"></path><path fill="#61a0e0" fill-rule="evenodd" d="M1385.5,1241.1h126.3c1.2,0,2.2,1,2.2,2.2v56.8c-15.1,4.4-36.2,12.2-61.4,22.7h-7.8    c-25.2-10.5-46.4-18.4-61.4-22.7v-56.8C1383.3,1242.1,1384.3,1241.1,1385.5,1241.1z" clip-rule="evenodd"></path><path fill="#1e77d1" fill-rule="evenodd" d="M1389.2,1301.9c14.5,4.6,33.5,11.7,55.5,21l0.2,0.1l1.5-0.1h2.2h2.2l1.5,0.1c22.2-9.3,41.2-16.5,55.7-21V1255    c-8.3,10.5-24.8,19.2-45.9,24.4c0.1,0.7,0.2,1.4,0.2,2.1c0,7.6-6.1,13.7-13.7,13.7c-6.8,0-12.4-4.9-13.5-11.4    c-6.1,0.5-12.4,0.8-18.8,0.8c-9.4,0-18.6-0.6-27.2-1.8V1301.9z" clip-rule="evenodd"></path><path fill="#ffb27d" fill-rule="evenodd" d="M1435.5,1076.1c8.5,11.8,22,22.3,40.5,31.2c-4.6,13.9-11.6,27.4-26.9,29.9c-14.6-2.3-22.7-12.9-26-27.9    C1430.9,1100.5,1435.1,1089.4,1435.5,1076.1z" clip-rule="evenodd"></path><path fill="#125aa3" fill-rule="evenodd" d="M1453.9,1099.2c10.4-2.6,9-2.3,17.1,2.6c-2.7-5.2-7.6-7-13.1-5.9C1455.3,1096.4,1454.9,1096.3,1453.9,1099.2    z" clip-rule="evenodd"></path><path fill="#284191" fill-rule="evenodd" d="M1490.9,1083.6c0-23.4-19.1-42.5-42.5-42.5c-23.4,0-42.5,19.1-42.5,42.5v66.9c7-2.4,14.8-4.4,23.4-6    c1-1.7,2.1-3.2,3.5-4.4c1,6.1,6.3,11.8,15.8,16.9c9.5-5.1,14.7-10.8,15.8-16.9c1.4,1.2,2.6,2.7,3.5,4.4c8.5,1.6,16.2,3.5,23,5.9    V1083.6L1490.9,1083.6z M1435.5,1076.1c8.5,11.8,22,22.3,40.5,31.2c-4.6,13.9-11.6,27.4-26.9,29.9c-14.6-2.3-22.7-12.9-26-27.9    C1430.9,1100.5,1435.1,1089.4,1435.5,1076.1z" clip-rule="evenodd"></path><path fill="#ffb27d" fill-rule="evenodd" d="M1464.4,1140c-1.1-1.7-1.8-4.6-2.2-8.9c-3.5,3-7.8,5.2-13.1,6.1c-6.1-1-11.1-3.4-15.1-7    c-0.1,3.9-0.5,7.2-1.1,9.8c1,6.1,6.3,11.8,15.8,16.9C1458.1,1151.8,1463.4,1146.2,1464.4,1140z" clip-rule="evenodd"></path><path fill="#f08261" fill-rule="evenodd" d="M1462.6,1134.4c-0.2-1-0.3-2-0.4-3.2c-3.5,3-7.8,5.2-13.1,6.1c-6.1-1-11.1-3.4-15.1-7c0,1.4-0.1,2.7-0.2,3.9    c3.7,2.5,8.8,4.6,15.5,6.3C1453.5,1139.3,1457.9,1137.8,1462.6,1134.4z" clip-rule="evenodd"></path><path fill="#284191" fill-rule="evenodd" d="M1406 1120h19.2l-2.5 78.4h-9l1.7-25.5-4.4 25.5h-12.1C1403.3 1180 1407.5 1139.6 1406 1120zM1471.9 1120.9l18-1.5c-.4 28.1 0 61 3.1 80h-9.1l-.7-2.4-1.1 2.4h-3.2l-2.2-16.4-.6 16.4h-6.7L1471.9 1120.9z" clip-rule="evenodd"></path><path fill="#1e77d1" fill-rule="evenodd" d="M1448.7,1272.6c4.9,0,8.8,4,8.8,8.8c0,4.9-4,8.9-8.8,8.9c-4.9,0-8.9-4-8.9-8.9    C1439.8,1276.6,1443.8,1272.6,1448.7,1272.6z" clip-rule="evenodd"></path><path fill="#4567c6" fill-rule="evenodd" d="M1390.1,1350.7c-3,7.7,2.5,20.2,6.3,22.7c69.1-6.9,112.3-16.7,138.9-30.1c7.9-4.4,21.8-6.3,30.2-11.9    c20.4-21.5,5.1-49.8-15.1-48.4c-14.2,2.7-20.8,6.8-27.5,14.8C1498.7,1303.3,1449.4,1322.8,1390.1,1350.7z" clip-rule="evenodd"></path><path fill="#3b5bb3" fill-rule="evenodd" d="M1444 1322.5c-37.8 14.7-67.5 20.6-89.3 17.7 2.7.9 5.1 1.9 7.2 3 7 3.5 15 6.8 24.4 9.8 1.1-.2 2.1-.4 3.2-.7.1-.6.3-1.2.5-1.7 21-9.8 40.7-18.7 58.5-26.2-1.3-.5-2.5-1-3.7-1.6-.1 0-.1-.1-.2-.1C1444.5 1322.7 1444.3 1322.6 1444 1322.5zM1508 1354c-15.9 4.9-35.5 9.2-59.3 12.9 15.5 2.4 32.8 4.6 52.2 6.5.3-.2.6-.4.9-.7C1504.9 1369.5 1508.7 1360.9 1508 1354z" clip-rule="evenodd"></path><path fill="#125aa3" fill-rule="evenodd" d="M1437.5 1103.5c-1.1.1-2.1-1.1-2.1-2.6-.1-1.5.8-2.7 1.9-2.8 1.1-.1 2.1 1.1 2.1 2.6C1439.4 1102.2 1438.6 1103.4 1437.5 1103.5zM1459.9 1104.5c1.1.1 2.1-1 2.2-2.5.1-1.5-.7-2.8-1.7-2.9-1.1-.1-2.1 1-2.2 2.5C1458 1103.1 1458.8 1104.4 1459.9 1104.5z" clip-rule="evenodd"></path><path fill="#125aa3" fill-rule="evenodd" d="M1444,1098.8c-9.3-4.3-8.1-3.7-16.5-0.3c3.4-4.7,8.3-5.6,13.3-3.7C1443.2,1095.8,1443.6,1095.8,1444,1098.8z    " clip-rule="evenodd"></path><path fill="none" stroke="#fc9774" stroke-linecap="round" stroke-miterlimit="2.613" stroke-width=".114" d="M1446.9,1106.6c-0.4,4.3-1.4,6.6-1.6,8.3c-0.2,2.1,0.2,2.3,1.8,2.5c1,0.1,1.4,0.2,1.4,0.2" clip-rule="evenodd"></path><path fill="#fff" fill-rule="evenodd" d="M1458.9,1123.6c-12.4,1.1-22,0-18.9,0.5C1443.3,1125.6,1451.8,1125.5,1458.9,1123.6z" clip-rule="evenodd"></path><path fill="#a4d0fc" fill-rule="evenodd" d="M1437.6 1101c.2 0 .3.5.3 1 0 .6-.3 1-.5 1-.2 0-.3-.5-.3-1C1437.2 1101.4 1437.4 1100.9 1437.6 1101zM1459.6 1101.6c.2 0 .3.5.3 1 0 .6-.3 1-.5 1-.2 0-.3-.5-.3-1C1459.2 1102 1459.4 1101.6 1459.6 1101.6z" clip-rule="evenodd"></path><path fill="#284191" fill-rule="evenodd" d="M1429.5,1072.7c7.2-5.3,12.9-5.6,17-0.8c0.3,13-3.8,23.4-12.3,31.3C1436.4,1097,1434.8,1086.9,1429.5,1072.7    z" clip-rule="evenodd"></path></g><g><path fill="#ffb27d" fill-rule="evenodd" d="M1119,537.1c24.7-3.7,33-2.6,48.1,25.5c15.1,28.1,35.2,78.7,46.7,85.2c17.4,9.8,23.2,33.9,30.3,32.9    c7.1-1.1,11.7,2.1,4,8.5c-7.8,6.5-20.3,12-24.6,10.8c-4.3-1.1-7.6-19.7-18.8-25.7c-11.2-6-7.8-11-7.1-16.3    c0.7-5.3-32.7-29.8-57.9-60.4c-15.4-18.6-23.3-30.9-24.5-42.1C1114,544.4,1119,537.1,1119,537.1z" clip-rule="evenodd"></path><path fill="#f4a269" fill-rule="evenodd" d="M1180.2,638.9c-5.7-14.5-11.5-38.5-16.9-60.5c-7.7-31.3-15.7-38.7-20.8-42c-6.2-1.5-13.5-0.8-23.4,0.7    c0,0-5.1,7.3-3.9,18.5c1.2,11.1,9.1,23.4,24.5,42.1C1152.9,613.7,1168.5,628.1,1180.2,638.9z" clip-rule="evenodd"></path><path fill="#3b5bb3" fill-rule="evenodd" d="M1126.5,561.8c0,0-6.6,49.5-12.7,54.5c-4.4,3.6-7.5,3.8-10.5-10.9c-3.1-14.8,4.8-69.9,4.8-69.9L1126.5,561.8    z" clip-rule="evenodd"></path><polygon fill="#f09959" fill-rule="evenodd" points="1121.3 588.6 1060.6 598.8 1094.9 549.6 1121 544.3 1136.6 547.9" clip-rule="evenodd"></polygon><path fill="#f4a269" fill-rule="evenodd" d="M995.1,539.1c-21.5,38.7-6.8,63.2,19.4,65.7c26.2,2.5,67.5-2.3,91.6-22.3c24.1-20,43.9-41.2,41.1-44.4    C1144.4,535,995.1,539.1,995.1,539.1z" clip-rule="evenodd"></path><path fill="#ffb27d" fill-rule="evenodd" d="M1117.3,567.9c4.4-13.2,9.5-23.4,19.3-23.6c10.4-0.2,16.7,5.2,17.2,22.1c0.5,20.2,1.2,87,0.3,116.7    c-0.7,22.5,5.8,29.7,5.3,53.1c-0.4,17.7,18.4,8.7,11.1,17.9c-5,6.3-19.9,4.2-29,3.1c-8.1-1,4.2-25.4-7.1-32    c-9.7-5.6-9.9-14.7-3.8-21.6c6.1-6.9,0.7-27.2-3.4-41.5c-4.1-14.3-10.4-29.7-14.5-63.4C1111.6,589.2,1114.6,576,1117.3,567.9z" clip-rule="evenodd"></path><path fill="#284191" fill-rule="evenodd" d="M1164.1 746.9c-3.1 1-7 2-10.3 2.1-6.8.2-8.8-7.2-9.3-17.4-.4-8.9-6.8-22.8-13.4-28.5-.1.2-.2.3-.4.5-6.1 6.9-5.9 16 3.8 21.6 11.3 6.5-1.1 30.9 7.1 32 9.1 1.2 24 3.2 29-3.1C1175.2 748.2 1169.4 747.7 1164.1 746.9zM1243.5 680.6c-2.6 2.3-6 5.1-9.3 6.8-6.8 3.5-13.1-2.1-19.2-10.7-5.4-7.6-11.3-18.6-21.2-20.3 0 .2-.1.4-.1.6-2.3 9-5.5 18.8 7.5 19 15.1.2 16.3 27.6 25.2 24.5 9.9-3.4 26.2-8.8 27.8-16.8C1255.5 676.3 1249.3 678.8 1243.5 680.6z" clip-rule="evenodd"></path><path fill="#284191" fill-rule="evenodd" d="M1132.2 701.1c0 0-9.9 10.3-9 14.6.9 4.3 4 15.2 4.5 23.5.5 8.4 1 18 1 18s3.6 0 3.8-1c.3-1 2.3-34 2.3-34L1132.2 701.1zM1193.8 656.5c0 0-4.2 13.8-.9 17.2 3.3 3.3 4.1 10.9 9.3 18 5.2 7.1 11.1 15.3 11.1 15.3s3.6-1.7 3.3-2.7c-.3-1-16.9-30.9-16.9-30.9L1193.8 656.5z" clip-rule="evenodd"></path><path fill="#4567c6" fill-rule="evenodd" d="M984.7,535.5c0,0-10,41-1.6,61.5c4.2,10.4,10.6,11.6,36.7,10.9c25.3-0.6,57.3-1.2,65.8-1.6    c10.7-0.6,22.5,11.5,22.5,11.5s-7.5-30.3-2.4-54.7c5.1-24.4,13.3-26.1,13.3-26.1l-10.9-1.5H984.7z" clip-rule="evenodd"></path><path fill="#284191" fill-rule="evenodd" d="M1035.8,325.7c0,0-6,39.1-7.1,54.4c-0.5,7.7-1.3,13.9,3.5,19.1c0,0-12.1,1.2-16.2-2.2c0,0,0.8,1.6,1.5,2.4    c0,0-13.5,0.5-19.1-3.7c-8.4-5.7-2.9-119.5,37.7-110.1c0,0,37.4-3.2,34.5,33.5c0.6,43.6,4.1,81.2,7.1,88.8    c-4.2,2.4-14.4-5.5-15.6-9c-1.1-3.1-1.7-6.7-2-7.6c0,0,1.3,10.5,1.9,11.2c0,0-15.1-1.7-21.6-6.6    C1034,391.1,1034,333.3,1035.8,325.7z" clip-rule="evenodd"></path><path fill="#284191" fill-rule="evenodd" d="M1020.5,353.9c0.1-0.4,0.2-0.9,0.3-1.3c-1.2-3.8-1.6-8.2-1-12.9c-3.7-3.2-11.6-0.5-18.3,1.6    c-2.9,26.9-2.9,54.2-1.3,56.2c3.4,4.2,11.5,3.7,11.5,3.7c-0.4-0.7-0.9-2.4-0.9-2.4c2.5,3.3,9.8,2.2,9.8,2.2    c-2.9-5.2-2.5-11.4-2.1-19.1C1018.8,375.4,1019.6,364.3,1020.5,353.9z" clip-rule="evenodd"></path><path fill="#ffb27d" fill-rule="evenodd" d="M1074.6,402H994c5.8-14.4,14-24.9,20.3-26.2c3.3-0.9,9-14.6,8.9-34.1l1.5,2l25.3,5c0,0-0.6,8-0.6,15.5    c0,6.3,0.3,12.6,1.7,13.4c1.8,0.2,3.5,0.5,3.5,0.5S1068.4,387.7,1074.6,402z" clip-rule="evenodd"></path><path fill="#f08261" fill-rule="evenodd" d="M1050,348.8c0,0-0.6,8-0.6,15.5c-14.2-0.4-21.6-13.3-24.7-20.5L1050,348.8z" clip-rule="evenodd"></path><path fill="#ffb27d" fill-rule="evenodd" d="M1021.3 335.6c0-20.9-4.4-34.8 17-36.1 21.4-1.2 25.5 6.7 27.2 13.7 1.1 4.3 1.1 21.1-2 32.1C1056.1 372.3 1021.3 349.1 1021.3 335.6zM1144.9 463.4c0 0 11.2-9.1 15.2-9.2 4 0 11.6-2 11.3-.7-.3 1.3-6.7 3-5.6 3.6 1.1.6 10.4-1.9 13-.4 2.6 1.5 8.7 7.7 3.8 10.4-4.9 2.7-19.7 7-23.5 6.5-3.8-.5-12.4-1.1-12.4-1.1L1144.9 463.4z" clip-rule="evenodd"></path><path fill="#dfedfa" fill-rule="evenodd" d="M1077.6,474.5c-0.2,39.5,5.8,56.5,5.8,56.5s-35.6,18.1-77.8,4.8c-0.5-0.2-35-8-35-8c0.7-1.6,7-28.2,7.7-29.7    c8.9-19.2,15.7-27.6,16.8-33.5c2-11,2-22.4,1-33.1c-2.6-28.4-10.3-52-10.3-52c11.5-2.6,22.3-7.2,34.3-11.7    c2.8,3.4,11.2,7,18.5,6.9c8.4-0.2,11.2-3.8,10.7-7.7c9,5,16.1,9.7,16.1,9.7c7.6,13.2,23.1,26.1,24.2,46.4    C1089.9,428,1077.6,473.4,1077.6,474.5z" clip-rule="evenodd"></path><path fill="#4f8ecc" fill-rule="evenodd" d="M1018.1,369.6c4.5,2.7,8.8,4.6,12.7,5.8c4.7,1.5,8.9,1.8,12.3,1.1c3.7-0.7,6.5-2.7,8.3-5.7    c0.5-0.9,1-1.9,1.3-3l-3.4-1c-0.3,0.8-0.6,1.6-1,2.3c-1.3,2.2-3.3,3.5-6,4.1c-2.9,0.6-6.5,0.2-10.6-1c-3.6-1.1-7.6-3-12-5.5    L1018.1,369.6z" clip-rule="evenodd"></path><path fill="#61a0e0" fill-rule="evenodd" d="M1018.4,537.2c0,0-5.1,18.3-22.5,15.9c-35.1-5.5-29.7-6.1-25.6-19.7c11.3-37.6,14.1-90.4,20.6-120.9    c1.8-8.6,14.2-11.3,14.7-16.5l14.5-28.2c0,0,21.6,48.6,22.8,60.8C1044,440.9,1018.4,537.2,1018.4,537.2z" clip-rule="evenodd"></path><path fill="#4f8ecc" fill-rule="evenodd" d="M1006.1,464.7c-0.8,19.8-7.7,53.7-35.6,68.5c-0.1,0.1-0.2,0.1-0.3,0.2c11.3-37.6,11.1-73.6,17.7-104.2    C1002.9,426.1,1006.6,453.8,1006.1,464.7z" clip-rule="evenodd"></path><path fill="#ffb27d" fill-rule="evenodd" d="M975.5,508.7c0,0,12.5-2.7,15.7,0.9c3.2,3.6,5,9.2,1.8,11.2c-3.2,2-12.5-3.5-15.8-1.3    c-2.4,1.6-3.1,5.6-5.6,4.2c-2.4-1.4-4.9-10.6-4.9-10.6L975.5,508.7z" clip-rule="evenodd"></path><path fill="#61a0e0" fill-rule="evenodd" d="M1020.1 367.8c0 0-33.7 1.5-41.8 9-8.1 7.5-56.6 65.7-57.4 80.9-.8 15.2 42.5 58.6 42.5 58.6s12-2.9 17.2-10.5c0 0-26.9-47.9-25.3-50 1.6-2.1 47.1-39.4 50.9-31.1C1009.4 431.9 1020.1 367.8 1020.1 367.8zM1148.4 458.5c0 0-38.5 12.8-43.3 11.8-4.8-1.1-11.7-53.2-15.4-71.1-4.8-23-23-27.6-23-27.6l-17.3-4.6c0 0 19.8 49 20.4 58.9.5 9.1 2 95.1 2.3 109.8h26.3c-1.9-2.3-4.2-9.5-5.7-29.7 13.7-2.3 57.6-24.6 57.6-24.6C1157 470.5 1148.4 458.5 1148.4 458.5z" clip-rule="evenodd"></path><path fill="#284191" fill-rule="evenodd" d="M1055.4,302.4c17.8,10.4,12.2,17.5,16.8,27c0,0,5.3-18.3-3-28.4C1060.3,290.2,1055.4,302.4,1055.4,302.4z" clip-rule="evenodd"></path><path fill="#284191" fill-rule="evenodd" d="M1064.3 298.4c-2.4-1.1-4-.9-4.9.7.6 3.7 2.4 6.5 5.2 8.3C1063.7 305.8 1063.6 302.8 1064.3 298.4zM1037.9 291.3c3.1-.9 4.5-2.4 4.1-4.6-3.6-3-7.5-4.2-11.6-3.5C1032.5 283.9 1035 286.6 1037.9 291.3z" clip-rule="evenodd"></path><path fill="#284191" fill-rule="evenodd" stroke="#284191" stroke-miterlimit="2.613" stroke-width=".216" d="M1055.6,295.2c0,0-9.9,26.3-25,30.2c-15.1,3.9-21.7-0.2-21.7-0.2s11.6-9.2,14-25.3    C1023,300,1048.2,282.7,1055.6,295.2z" clip-rule="evenodd"></path><path fill="#284191" fill-rule="evenodd" d="M1019 323.6c3.6-3.7 6.7-4.4 9.5-2.1 1.5 7.2.2 13.5-3.9 18.8C1025.2 336.6 1023.4 331.1 1019 323.6zM1065.5 311.4c1.9-7.2 3.9-9.3 6-6.3 1.8 11.7 1.7 22.6-.4 32.7C1071.1 331.5 1069.2 322.7 1065.5 311.4z" clip-rule="evenodd"></path><path fill="#284191" fill-rule="evenodd" d="M1048.8 304.1c-2.5-7 4.8-6.6 8.2-5.3 8.2 8.6 14.3 17.6 18.3 27.1C1069 320.5 1048.1 310.3 1048.8 304.1zM1038.5 290.6c-1.2-.9-1.7-2.4-1.6-4.6 1.4-3 2.9-4.2 4.5-3.5C1040.6 283.2 1039.6 285.9 1038.5 290.6z" clip-rule="evenodd"></path><path fill="#4f8ecc" fill-rule="evenodd" d="M1041.7,376c1.9-0.3,3.9,1.7,4.4,4.5c0.5,2.8-0.7,5.3-2.6,5.7c-1.9,0.3-3.9-1.7-4.4-4.5    C1038.6,378.9,1039.8,376.3,1041.7,376z" clip-rule="evenodd"></path><path fill="#4f8ecc" fill-rule="evenodd" d="M1043.9,384.6c1.2-0.2,2.4,1,2.7,2.8c0.3,1.7-0.4,3.3-1.6,3.5c-1.2,0.2-2.4-1-2.7-2.8    C1042,386.4,1042.7,384.8,1043.9,384.6z" clip-rule="evenodd"></path><path fill="#4f8ecc" fill-rule="evenodd" d="M1045.1,390c1-0.2,2.1,0.9,2.4,2.4c0.3,1.5-0.4,2.9-1.4,3.1c-1,0.2-2.1-0.9-2.4-2.4    C1043.4,391.5,1044,390.1,1045.1,390z" clip-rule="evenodd"></path><path fill="#125aa3" fill-rule="evenodd" d="M1045.7,327.2c-7.8-1.4-6.8-1.2-12.6,2.8c1.8-4,5.3-5.6,9.4-5.1C1044.4,325.1,1044.8,325,1045.7,327.2z" clip-rule="evenodd"></path><path fill="#125aa3" fill-rule="evenodd" d="M1041.5 331.4c-.8.1-1.6-.7-1.8-1.8-.2-1.1.3-2.1 1.2-2.2.8-.1 1.6.7 1.8 1.8C1042.8 330.3 1042.3 331.3 1041.5 331.4zM1053 326.4c6.7-3.7 5.8-3.2 12.2-1-2.8-3.3-6.5-3.7-10.1-2C1053.5 324.1 1053.1 324.1 1053 326.4z" clip-rule="evenodd"></path><path fill="#125aa3" fill-rule="evenodd" d="M1058.1,329.5c0.8,0,1.5-0.9,1.5-2c0-1.1-0.7-2-1.5-2c-0.8,0-1.5,0.9-1.5,2     C1056.6,328.7,1057.3,329.5,1058.1,329.5z" clip-rule="evenodd"></path><path fill="none" stroke="#fc9774" stroke-linecap="round" stroke-miterlimit="2.613" stroke-width=".138" d="M1050.1,331.6c0.8,4.2,2.1,6.4,2.5,8.1c0.4,2-0.1,2.3-2.1,2.6c-1.2,0.2-1.8,0.3-1.8,0.3" clip-rule="evenodd"></path><path fill="#fff" fill-rule="evenodd" d="M1043.9,347.8c4.9,0.7,9.6-0.4,9.5,1.1C1051.2,349.5,1047.6,349,1043.9,347.8z" clip-rule="evenodd"></path><path fill="#a4d0fc" fill-rule="evenodd" d="M1057.7 325.6c-.1 0-.2.4-.2.8.1.4.2.7.4.7.1 0 .2-.4.2-.8C1058.1 325.9 1057.9 325.5 1057.7 325.6zM1041.4 327.6c-.1 0-.2.4-.2.8.1.4.2.7.4.7.1 0 .2-.4.2-.8C1041.7 327.9 1041.6 327.6 1041.4 327.6z" clip-rule="evenodd"></path><path fill="#284191" fill-rule="evenodd" d="M1057.4,298.2c0,0-7,27.5-26.1,36.3c0,0,19.1-16.9,20.7-35.1C1053.6,281.3,1057.4,298.2,1057.4,298.2z" clip-rule="evenodd"></path></g><g><path fill="#dfedfa" fill-rule="evenodd" d="M1123.2,351.6h168.3c5.9,0,10.7,4.8,10.7,10.7v87c0,5.9-4.8,10.7-10.7,10.7h-168.3    c-5.9,0-10.7-4.8-10.7-10.7v-87C1112.5,356.4,1117.3,351.6,1123.2,351.6z" clip-rule="evenodd"></path><path fill="#1e77d1" fill-rule="evenodd" d="M1123.2,350.9h29.9c-0.3,0.4-0.4,0.9-0.4,1.4h-29.5c-5.5,0-10,4.5-10,10v23c-0.4-0.3-0.9-0.4-1.4-0.4v-22.6    C1111.8,356,1116.9,350.9,1123.2,350.9L1123.2,350.9z M1113.2,408.9v40.4c0,5.5,4.5,10,10,10h74.5c0.1,0.4,0.1,0.7,0.2,1.1    l-0.4,0.3h-74.4c-6.2,0-11.4-5.1-11.4-11.4v-40.4C1112.3,409,1112.8,409,1113.2,408.9L1113.2,408.9z M1255.5,459.3h36    c5.5,0,10-4.5,10-10v-60.4c0.5-0.1,1-0.3,1.4-0.7v61.1c0,6.3-5.1,11.4-11.4,11.4h-35.1C1256.3,460.1,1255.9,459.6,1255.5,459.3    L1255.5,459.3z M1301.4,360.8c-0.7-4.8-4.9-8.6-9.9-8.6h-102.3c0.2-0.4,0.2-0.9,0.1-1.4h102.2c5.8,0,10.5,4.3,11.3,9.9    C1302.3,360.8,1301.8,360.8,1301.4,360.8z" clip-rule="evenodd"></path></g><path fill="#61a0e0" fill-rule="evenodd" d="M1142.6,404.2c4.3-1.6,6.4-5,6.4-8.6c0-3.3-1.5-5.9-3.9-7.6c-2.8-1.9-6.2-2.6-11-2.6c-3.9,0-7.9,0.4-10.2,0.8   v39.4c1.9,0.3,4.7,0.5,8.5,0.5c7.1,0,11.6-1.3,14.3-3.7c2.3-2.1,3.6-5.1,3.6-8.2c0-5.1-3.3-8.6-7.8-9.8V404.2L1142.6,404.2z    M1131.5,402v-10.6c0.7-0.2,1.7-0.3,3.4-0.3c3.4,0,6.4,1.3,6.4,5.3c0,3.3-2.6,5.6-7,5.6H1131.5L1131.5,402z M1131.5,407.6h2.9   c4,0,7.9,1.7,7.9,6.3c0,4.5-3.5,6.4-7.7,6.4c-1.4,0-2.3-0.1-3.1-0.2V407.6L1131.5,407.6z M1175.1,406.7c3.7-1.5,6.9-5,6.9-9.9   c0-10.7-10.2-11.3-15.3-11.3c-3.9,0-7.7,0.4-10.3,0.8v39.5h7.7v-16.2h2.6c3.6,0,5.3,1.6,6.3,6.8c0.9,4.8,1.9,8.3,2.5,9.5h7.9   c-0.8-1.5-1.8-6.3-3-11c-0.9-4.1-2.5-6.8-5.3-7.9V406.7L1175.1,406.7z M1164.1,403.8v-12.2c0.6-0.2,1.8-0.3,3.5-0.3   c2.8,0,6.7,1,6.7,6.1c0,3.8-2.7,6.4-7,6.4H1164.1L1164.1,403.8z M1206.5,385.7h-9.7l-11.3,40h7.8l2.8-10.6h10.7l2.9,10.6h8.1   L1206.5,385.7L1206.5,385.7z M1197.1,409.4l2.4-9.2c0.6-2.3,1.2-5.6,1.8-8.1h0.2c0.5,2.4,1.2,5.7,1.8,8.2l2.4,9.1H1197.1   L1197.1,409.4z M1252,385.7h-7v12c0,6.5,0.2,12.2,0.7,17.3h-0.1c-1.6-4.2-3.9-9.1-6-13.1l-8.4-16.2h-8.3v40h7v-12.3   c0-7.1-0.2-12.8-0.5-17.7h0.2c1.7,4.4,4,9.3,6.1,13.4l8.6,16.6h7.7V385.7L1252,385.7z M1259.9,425.6c2,0.3,5,0.5,8.7,0.5   c7,0,12.5-1.6,16.2-4.9c3.1-2.8,6-7.8,6-16.3c0-7.2-2.2-12.2-6-15.3c-3.3-2.8-7.9-4.2-14.5-4.2c-3.9,0-7.5,0.3-10.4,0.8V425.6   L1259.9,425.6z M1267.5,391.8c0.8-0.2,2-0.3,3.6-0.3c7.1,0,11.6,4.5,11.6,13.5c0,10.5-4.9,15-12.2,15c-1,0-2.2,0-3-0.2V391.8z" clip-rule="evenodd"></path><path fill="#a4d0fc" fill-rule="evenodd" d="M574.4 596.9l-7.7 4.5c-2.6 1.5-3.5 4.9-2 7.5l1.7 2.9c2 3.5 1.1 5 .5 5.6-1.7 1.5-3.3 3.2-4.9 4.9-.5.5-2 2.2-5.9-.1l-2.7-1.6c-2.6-1.5-6-.6-7.5 2l-4.5 7.7c-1.5 2.6-.6 6 2 7.5l2.7 1.6c3.7 2.1 3.6 3.2 3.1 4.8-.6 2.2-1.3 4.3-1.8 6.5-.4 2-.2 3.4-5.3 3.4H539c-3 0-5.5 2.5-5.5 5.5v9c0 3 2.5 5.5 5.5 5.5h3.1c5 0 4.8 1.4 5.3 3.4.5 2.2 1.2 4.4 1.8 6.5.5 1.6.6 2.7-3.1 4.8l-2.7 1.6c-2.6 1.5-3.5 4.9-2 7.5l4.5 7.7c1.5 2.6 4.9 3.5 7.5 2l2.7-1.6c3.9-2.3 5.4-.6 5.9-.1 1.6 1.7 3.2 3.3 4.9 4.9.6.6 1.5 2.1-.5 5.6l-1.7 2.9c-1.5 2.6-.6 6 2 7.5l7.7 4.5c2.6 1.5 6 .6 7.5-2l1.7-2.9c2-3.5 4.1-3.4 4.9-3.1 2.5.8 4.8 1.3 7.3 2 .9.2 2.5.9 2.5 5.1v3.1c0 3 2.5 5.5 5.5 5.5h9c3 0 5.5-2.5 5.5-5.5v-3.1c0-4.2 1.6-4.9 2.5-5.1 2.6-.7 4.8-1.2 7.3-2 .9-.3 2.9-.4 4.9 3.1l1.7 2.9c1.5 2.6 4.9 3.5 7.5 2l7.7-4.5c2.6-1.5 3.5-4.9 2-7.5l-1.7-2.9c-2-3.5-1.1-5-.5-5.6 1.7-1.5 3.3-3.2 4.9-4.9.5-.5 2-2.2 5.9.1l2.7 1.6c2.6 1.5 6 .6 7.5-2l4.5-7.7c1.5-2.6.6-6-2-7.5l-2.7-1.6c-3.7-2.1-3.6-3.2-3.1-4.8.6-2.2 1.3-4.3 1.8-6.5.4-2 .2-3.4 5.3-3.4h3.1c3 0 5.5-2.5 5.5-5.5v-9c0-3-2.5-5.5-5.5-5.5h-3.1c-5 0-4.8-1.4-5.3-3.4-.5-2.2-1.2-4.4-1.8-6.5-.5-1.6-.6-2.7 3.1-4.8l2.7-1.6c2.6-1.5 3.5-4.9 2-7.5l-4.5-7.7c-1.5-2.6-4.9-3.5-7.5-2l-2.7 1.6c-3.9 2.3-5.4.6-5.9.1-1.6-1.7-3.2-3.3-4.9-4.9-.6-.6-1.5-2.1.5-5.6l1.7-2.9c1.5-2.6.6-6-2-7.5l-7.7-4.5c-2.6-1.5-6-.6-7.5 2l-1.7 2.9c-2 3.5-4.1 3.4-4.9 3.1-2.5-.8-4.8-1.3-7.3-2-.9-.2-2.5-.9-2.5-5.1v-3.1c0-3-2.5-5.5-5.5-5.5h-9c-3 0-5.5 2.5-5.5 5.5v3.1c0 4.2-1.6 4.9-2.5 5.1-2.6.7-4.8 1.2-7.3 2-.9.3-2.9.4-4.9-3.1l-1.7-2.9C580.4 596.2 577 595.3 574.4 596.9L574.4 596.9zM608.3 652.3c6.5 0 11.8 5.3 11.8 11.8 0 6.5-5.3 11.8-11.8 11.8-6.5 0-11.8-5.3-11.8-11.8C596.5 657.6 601.8 652.3 608.3 652.3L608.3 652.3zM571.2 664.1c0-1.4 1.1-2.5 2.5-2.5 1.4 0 2.5 1.1 2.5 2.5 0 8.8 3.6 16.8 9.4 22.6 5.8 5.8 13.8 9.4 22.6 9.4 1.4 0 2.5 1.1 2.5 2.5 0 1.4-1.1 2.5-2.5 2.5-10.2 0-19.5-4.2-26.2-10.9C575.4 683.6 571.2 674.3 571.2 664.1L571.2 664.1zM644.9 658.1c.2 1.4-.7 2.7-2.1 2.9-1.4.2-2.7-.7-2.9-2.1-1.1-6.7-4.3-12.7-8.8-17.3-4.6-4.6-10.6-7.9-17.3-9-1.4-.2-2.3-1.5-2.1-2.9.2-1.4 1.5-2.3 2.9-2.1 7.8 1.3 14.7 5.1 20 10.5C639.9 643.4 643.6 650.3 644.9 658.1L644.9 658.1zM608.3 620.2c24.3 0 43.9 19.7 43.9 43.9 0 24.3-19.7 43.9-43.9 43.9s-43.9-19.7-43.9-43.9C564.3 639.8 584 620.2 608.3 620.2zM689.1 723.4l-7.7 4.5c-2.6 1.5-3.5 4.9-2 7.5l1.7 2.9c2 3.5 1.1 5 .5 5.6-1.7 1.5-3.3 3.2-4.9 4.9-.5.5-2 2.2-5.9-.1l-2.7-1.6c-2.6-1.5-6-.6-7.5 2l-4.5 7.7c-1.5 2.6-.6 6 2 7.5l2.7 1.6c3.7 2.1 3.6 3.2 3.1 4.8-.6 2.2-1.3 4.3-1.8 6.5-.4 2-.2 3.4-5.3 3.4h-3.1c-3 0-5.5 2.5-5.5 5.5v9c0 3 2.5 5.5 5.5 5.5h3.1c5 0 4.8 1.4 5.3 3.4.5 2.2 1.2 4.4 1.8 6.5.5 1.6.6 2.7-3.1 4.8l-2.7 1.6c-2.6 1.5-3.5 4.9-2 7.5l4.5 7.7c1.5 2.6 4.9 3.5 7.5 2l2.7-1.6c3.9-2.3 5.4-.6 5.9-.1 1.6 1.7 3.2 3.3 4.9 4.9.6.6 1.5 2.1-.5 5.6l-1.7 2.9c-1.5 2.6-.6 6 2 7.5l7.7 4.5c2.6 1.5 6 .6 7.5-2l1.7-2.9c2-3.5 4.1-3.4 4.9-3.1 2.5.8 4.8 1.3 7.3 2 .9.2 2.5.9 2.5 5.1v3.1c0 3 2.5 5.5 5.5 5.5h9c3 0 5.5-2.5 5.5-5.5v-3.1c0-4.2 1.6-4.9 2.5-5.1 2.5-.7 4.8-1.2 7.3-2 .9-.3 2.9-.4 4.9 3.1l1.7 2.9c1.5 2.6 4.9 3.5 7.5 2l7.7-4.5c2.6-1.5 3.5-4.9 2-7.5l-1.7-2.9c-2-3.5-1.1-5-.5-5.6 1.7-1.5 3.3-3.2 4.9-4.9.5-.5 2-2.2 5.9.1l2.7 1.6c2.6 1.5 6 .6 7.5-2l4.5-7.7c1.5-2.6.6-6-2-7.5l-2.7-1.6c-3.7-2.1-3.6-3.2-3.1-4.8.6-2.1 1.3-4.3 1.8-6.5.4-2 .2-3.4 5.3-3.4h3.1c3 0 5.5-2.5 5.5-5.5v-9c0-3-2.5-5.5-5.5-5.5h-3.1c-5 0-4.8-1.4-5.3-3.4-.5-2.2-1.2-4.4-1.8-6.5-.5-1.6-.6-2.7 3.1-4.8l2.7-1.6c2.6-1.5 3.5-4.9 2-7.5l-4.5-7.7c-1.5-2.6-4.9-3.5-7.5-2l-2.7 1.6c-3.9 2.3-5.4.6-5.9.1-1.6-1.7-3.2-3.3-4.9-4.9-.6-.6-1.5-2.1.5-5.6l1.7-2.9c1.5-2.6.6-6-2-7.5l-7.7-4.5c-2.6-1.5-6-.6-7.5 2l-1.7 2.9c-2 3.5-4.1 3.4-4.9 3.1-2.5-.8-4.8-1.3-7.3-2-.9-.2-2.5-.9-2.5-5.1v-3.1c0-3-2.5-5.5-5.5-5.5h-9c-3 0-5.5 2.5-5.5 5.5v3.1c0 4.2-1.6 4.9-2.5 5.1-2.6.7-4.8 1.2-7.3 2-.9.3-2.9.4-4.9-3.1l-1.7-2.9C695.1 722.8 691.7 721.9 689.1 723.4L689.1 723.4zM723 778.8c6.5 0 11.8 5.3 11.8 11.8 0 6.5-5.3 11.8-11.8 11.8s-11.8-5.3-11.8-11.8C711.2 784.1 716.5 778.8 723 778.8L723 778.8zM685.9 790.6c0-1.4 1.1-2.5 2.5-2.5 1.4 0 2.5 1.1 2.5 2.5 0 8.8 3.6 16.9 9.4 22.6 5.8 5.8 13.8 9.4 22.6 9.4 1.4 0 2.5 1.1 2.5 2.5 0 1.4-1.1 2.5-2.5 2.5-10.2 0-19.5-4.1-26.2-10.9C690.1 810.2 685.9 800.9 685.9 790.6L685.9 790.6zM759.6 784.7c.2 1.4-.7 2.7-2.1 2.9-1.4.2-2.7-.7-2.9-2.1-1.1-6.7-4.3-12.7-8.8-17.3-4.6-4.6-10.6-7.9-17.3-9-1.4-.2-2.3-1.5-2.1-2.9.2-1.4 1.5-2.3 2.9-2.1 7.8 1.3 14.7 5.1 20 10.5C754.7 769.9 758.4 776.9 759.6 784.7L759.6 784.7zM723 746.7c24.3 0 43.9 19.7 43.9 43.9 0 24.3-19.7 43.9-43.9 43.9-24.3 0-43.9-19.7-43.9-43.9C679.1 766.4 698.7 746.7 723 746.7zM737 559.9l-7.7 4.5c-2.6 1.5-3.5 4.9-2 7.5l1.7 2.9c2 3.5 1.1 5 .5 5.6-1.7 1.5-3.3 3.2-4.9 4.9-.5.5-2 2.2-5.9-.1l-2.7-1.6c-2.6-1.5-6-.6-7.5 2l-4.5 7.7c-1.5 2.6-.6 6 2 7.5l2.7 1.6c3.7 2.1 3.6 3.2 3.1 4.8-.6 2.1-1.3 4.3-1.8 6.5-.4 2-.2 3.4-5.3 3.4h-3.1c-3 0-5.5 2.5-5.5 5.5v9c0 3 2.5 5.5 5.5 5.5h3.1c5 0 4.8 1.4 5.3 3.4.5 2.2 1.2 4.4 1.8 6.5.5 1.6.6 2.7-3.1 4.8l-2.7 1.6c-2.6 1.5-3.5 4.9-2 7.5l4.5 7.7c1.5 2.6 4.9 3.5 7.5 2l2.7-1.6c3.9-2.3 5.4-.6 5.9-.1 1.6 1.7 3.2 3.3 4.9 4.9.6.6 1.5 2.1-.5 5.6l-1.7 2.9c-1.5 2.6-.6 6 2 7.5l7.7 4.5c2.6 1.5 6 .6 7.5-2l1.7-2.9c2-3.5 4.1-3.4 4.9-3.1 2.5.8 4.8 1.3 7.3 2 .9.2 2.5.9 2.5 5.1v3.1c0 3 2.5 5.5 5.5 5.5h9c3 0 5.5-2.5 5.5-5.5v-3.1c0-4.2 1.6-4.9 2.5-5.1 2.6-.7 4.8-1.2 7.3-2 .9-.3 2.9-.4 4.9 3.1l1.7 2.9c1.5 2.6 4.9 3.5 7.5 2l7.7-4.5c2.6-1.5 3.5-4.9 2-7.5l-1.7-2.9c-2-3.5-1.1-5-.5-5.6 1.7-1.5 3.3-3.2 4.9-4.9.5-.5 2-2.2 5.9.1l2.7 1.6c2.6 1.5 6 .6 7.5-2l4.5-7.7c1.5-2.6.6-6-2-7.5l-2.7-1.6c-3.7-2.1-3.6-3.2-3.1-4.8.6-2.2 1.3-4.3 1.8-6.5.4-2 .2-3.4 5.3-3.4h3.1c3 0 5.5-2.5 5.5-5.5v-9c0-3-2.5-5.5-5.5-5.5h-3.1c-5 0-4.8-1.4-5.3-3.4-.5-2.2-1.2-4.4-1.8-6.5-.5-1.6-.6-2.7 3.1-4.8l2.7-1.6c2.6-1.5 3.5-4.9 2-7.5l-4.5-7.7c-1.5-2.6-4.9-3.5-7.5-2l-2.7 1.6c-3.9 2.3-5.4.6-5.9.1-1.6-1.7-3.2-3.3-4.9-4.9-.6-.6-1.5-2.1.5-5.6l1.7-2.9c1.5-2.6.6-6-2-7.5l-7.7-4.5c-2.6-1.5-6-.6-7.5 2l-1.7 2.9c-2 3.5-4.1 3.4-4.9 3.1-2.5-.8-4.8-1.3-7.3-2-.9-.2-2.5-.9-2.5-5.1v-3.1c0-3-2.5-5.5-5.5-5.5h-9c-3 0-5.5 2.5-5.5 5.5v3.1c0 4.2-1.6 4.9-2.5 5.1-2.6.7-4.8 1.2-7.3 2-.9.3-2.9.4-4.9-3.1l-1.7-2.9C743 559.2 739.6 558.4 737 559.9L737 559.9zM770.9 615.3c6.5 0 11.8 5.3 11.8 11.8 0 6.5-5.3 11.8-11.8 11.8-6.5 0-11.8-5.3-11.8-11.8C759.1 620.6 764.4 615.3 770.9 615.3L770.9 615.3zM733.8 627.1c0-1.4 1.1-2.5 2.5-2.5 1.4 0 2.5 1.1 2.5 2.5 0 8.8 3.6 16.8 9.4 22.6 5.8 5.8 13.8 9.4 22.6 9.4 1.4 0 2.5 1.1 2.5 2.5 0 1.4-1.1 2.5-2.5 2.5-10.2 0-19.5-4.2-26.2-10.9C738 646.6 733.8 637.4 733.8 627.1L733.8 627.1zM807.5 621.1c.2 1.4-.7 2.7-2.1 2.9-1.4.2-2.7-.7-2.9-2.1-1.1-6.7-4.3-12.7-8.8-17.3-4.6-4.6-10.6-7.9-17.3-9-1.4-.2-2.3-1.5-2.1-2.9.2-1.4 1.5-2.3 2.9-2.1 7.8 1.3 14.7 5.1 20 10.5C802.6 606.4 806.3 613.4 807.5 621.1L807.5 621.1zM770.9 583.2c24.3 0 43.9 19.7 43.9 43.9 0 24.3-19.7 43.9-43.9 43.9-24.3 0-43.9-19.7-43.9-43.9C727 602.8 746.7 583.2 770.9 583.2z" clip-rule="evenodd"></path><g><path fill="#fff" fill-rule="evenodd" d="M1347.5,491h244.8c11.3,0,20.6,9.3,20.6,20.6v184c0,11.3-9.3,20.6-20.6,20.6h-70.7    c-28.4,20.1-44.8,45.9-49.3,77.5c-6.5-41.1-24.5-66.9-54-77.5h-70.7c-11.3,0-20.6-9.3-20.6-20.6v-184    C1326.9,500.3,1336.2,491,1347.5,491z" clip-rule="evenodd"></path><path fill="#8bbae9" fill-rule="evenodd" d="M1347.5,486.4h244.8c6.9,0,13.3,2.8,17.8,7.4c4.6,4.6,7.4,10.9,7.4,17.8v184c0,7-2.8,13.3-7.4,17.8    c-4.6,4.6-10.9,7.4-17.8,7.4H1523c-13.1,9.5-23.5,20.2-31.1,32.3c-7.9,12.3-12.9,26.1-15,41.2c-0.3,2.5-2.7,4.3-5.2,4    c-2.2-0.3-3.7-2-4-4.1c-3.2-19.7-9-35.7-17.6-48c-8.3-11.9-19.1-20.3-32.6-25.3h-70c-6.9,0-13.3-2.8-17.8-7.4    c-4.6-4.6-7.4-10.9-7.4-17.8v-184c0-6.9,2.8-13.3,7.4-17.8C1334.2,489.2,1340.6,486.4,1347.5,486.4L1347.5,486.4z M1592.3,495.7    h-244.8c-4.4,0-8.4,1.8-11.3,4.7c-2.9,2.9-4.7,6.9-4.7,11.3v184c0,4.4,1.8,8.4,4.7,11.3c2.9,2.9,6.9,4.7,11.3,4.7h70.7v0    c0.5,0,1,0.1,1.6,0.3c15.7,5.6,28.3,15.3,37.9,29c6.2,8.9,11.1,19.6,14.7,31.9c2.9-8.7,6.7-16.9,11.6-24.6    c8.4-13.3,19.9-25.1,34.4-35.4c0.8-0.7,1.9-1.2,3.1-1.2h70.7c4.4,0,8.4-1.8,11.3-4.7c2.9-2.9,4.7-6.9,4.7-11.3v-184    c0-4.4-1.8-8.4-4.7-11.3C1600.6,497.5,1596.6,495.7,1592.3,495.7z" clip-rule="evenodd"></path><path fill="#f57a44" fill-rule="evenodd" d="M1469.6,551.7c0,0,14.2-23.5,42.8-23.7c25.5-0.3,43.3,23.6,43.5,51.5c0.3,32.3-23.3,70.8-85.1,104.6    c-62.4-32.7-86.7-70.7-87-103.1c-0.3-27.9,17.1-52,42.5-52.3C1455,528.5,1469.6,551.7,1469.6,551.7z" clip-rule="evenodd"></path></g></svg>