<?xml version="1.0" encoding="UTF-8"?>
<svg id="Layer_1" data-name="Layer 1" xmlns="http://www.w3.org/2000/svg" version="1.1" viewBox="0 0 36 24">
  <defs>
    <style>
      .cls-1 {
        fill: #009;
      }

      .cls-1, .cls-2, .cls-3, .cls-4 {
        stroke-width: 0px;
      }

      .cls-2 {
        fill: #000;
      }

      .cls-3 {
        fill: #096;
      }

      .cls-4 {
        fill: #fff;
      }
    </style>
  </defs>
  <path class="cls-3" d="M36,19.8H0v4.2h36v-4.2h0ZM36,0H0v4.2h36V0Z"/>
  <path class="cls-2" d="M36,4.2H0v1.2h36v-1.2ZM36,18.6H0v1.2h36v-1.2Z"/>
  <path class="cls-1" d="M36,5.4H0v13.2h36V5.4h0Z"/>
  <path class="cls-4" d="M17.4,5.7c-6,1.8-5.7,6.3-3.8,10.4l-2.3,2.2,4.1-1.5v-5.5c1.3-2,3.7-2,5,0v5.5l4.1,1.5-2.3-2.2c1.9-4.1,2.2-8.6-3.8-10.4l-.6,2.6-.6-2.6Z"/>
  <path class="cls-4" d="M20.3,11.8l-1.4,1.1.5,1.7-1.4-1.1-1.4,1.1.5-1.7-1.4-1.1h1.7s.5-1.7.5-1.7l.5,1.7h1.7s0,0,0,0Z"/>
</svg>