<?xml version="1.0" encoding="UTF-8"?>
<svg id="Layer_1" data-name="Layer 1" xmlns="http://www.w3.org/2000/svg" version="1.1" viewBox="0 0 424.2 144.5">
  <defs>
    <style>
      .cls-1 {
        fill: #f4a10c;
      }

      .cls-1, .cls-2 {
        stroke-width: 0px;
      }

      .cls-3 {
        stroke: #f4a10c;
        stroke-miterlimit: 10;
        stroke-width: .3px;
      }

      .cls-3, .cls-2 {
        fill: #000;
      }

      .cls-4 {
        opacity: 1;
      }
    </style>
  </defs>
  <circle class="cls-1" cx="352" cy="72.3" r="72.3"/>
  <g>
    <path class="cls-2" d="M30,81.6h.4c1.2,0,1.7-.5,1.7-1.6s0-.8-.2-1.2l-6.6-17.7h-12.7l-6.3,17.4c-.1.4-.2.8-.2,1.1,0,.6.2,1.1.5,1.5.3.4.7.5,1.1.5h.4v.7H0v-.7h.4c.6,0,1.2-.4,1.9-1.1.6-.8,1.1-1.6,1.5-2.7l16.7-44.4,16.3,44c.3,1,.8,1.9,1.4,2.8.6.9,1.4,1.4,2.4,1.4h.4v.7h-10.8v-.7ZM13.3,58.6h11.2l-5.6-15.2-5.6,15.2Z"/>
    <path class="cls-2" d="M72.1,79.7c-.4,0-.8,0-1.1.3-.3.2-.7.4-1.2.6-.8.5-1.9,1-3.1,1.5-1.3.5-2.9.8-5,.8s-4.8-.4-6.9-1.2c-2.1-.8-3.9-1.9-5.5-3.4-1.5-1.4-2.7-3.1-3.6-5-.9-1.9-1.3-4-1.3-6.2s.4-4.1,1.1-6c.8-1.9,1.8-3.6,3.2-5,1.4-1.5,3.1-2.6,5.2-3.5,2.1-.9,4.4-1.3,7-1.3s3.3.2,4.4.6c1.1.4,2.1.8,2.8,1.2.4.2.9.4,1.3.6.4.1.8.2,1.3.2v5.5h-.7c-.2-.9-.7-1.7-1.3-2.4-.6-.7-1.4-1.3-2.2-1.8-.8-.5-1.7-.8-2.7-1.1-1-.2-1.9-.4-2.8-.4-2,0-3.7.4-5.2,1.1-1.5.7-2.7,1.6-3.7,2.8-1,1.1-1.7,2.4-2.2,3.9-.5,1.5-.7,3-.7,4.5s.3,3.6.9,5.3c.6,1.7,1.4,3.3,2.5,4.6,1.1,1.4,2.4,2.5,4,3.3,1.6.8,3.3,1.2,5.2,1.2s2.6-.2,3.8-.6c1.1-.4,2.1-.9,2.9-1.5.8-.6,1.4-1.3,1.9-2.1.5-.8.8-1.5.9-2.1h.7v5.7Z"/>
    <path class="cls-2" d="M96.2,82.3v-3.7l-.4.4c-1.2,1.2-2.6,2.2-4.2,2.8-1.6.7-3.5,1-5.7,1s-3.2-.2-4.4-.6c-1.2-.4-2.2-.9-3-1.6-.8-.7-1.3-1.5-1.7-2.4-.4-.9-.5-1.9-.5-2.9,0-1.7.4-3.1,1.3-4.4.9-1.3,2.2-2.4,3.9-3.4,1.7-1,3.8-1.9,6.2-2.7,2.5-.8,5.3-1.6,8.4-2.4,0-1.9-.5-3.4-1.2-4.6-.7-1.2-1.5-2.1-2.4-2.7-.9-.7-1.9-1.1-2.9-1.3-1-.2-1.9-.3-2.6-.3-1.3,0-2.4.2-3.3.6-.9.4-1.8.9-2.5,1.5-.7.6-1.3,1.3-1.8,2-.5.7-.9,1.4-1.2,2h-.7v-5.3c.4,0,.8-.2,1.1-.4.3-.2.8-.4,1.2-.6.7-.3,1.7-.7,3-1.3,1.3-.6,3-.8,5.3-.8s4.8.3,6.5,1c1.7.7,2.9,1.6,3.8,2.7.9,1.1,1.5,2.4,1.8,3.8.3,1.4.4,2.9.4,4.4v14.4c0,1,.2,1.9.7,2.7s1,1.3,1.7,1.3v.7h-7.1ZM96.2,75.4v-10.4h-.7c-1.2.4-2.6.8-4.3,1.3-1.7.5-3.3,1.1-4.8,1.9-1.5.8-2.8,1.7-3.9,2.8-1.1,1.1-1.6,2.3-1.6,3.7s.6,2.8,1.9,3.9c1.3,1,2.9,1.5,5,1.5s3-.4,4.2-1.1c1.2-.7,2.3-1.6,3.4-2.7l.8-.9Z"/>
    <path class="cls-2" d="M133.4,82.3v-3.2c-.8.9-1.9,1.8-3.3,2.5s-3.1,1.2-5.2,1.2-4.8-.4-6.7-1.3c-1.9-.9-3.5-2.1-4.8-3.5-1.3-1.5-2.2-3.1-2.8-5-.6-1.9-.9-3.8-.9-5.8s.3-3.9.9-5.8c.6-1.9,1.6-3.6,2.8-5.1,1.3-1.5,2.8-2.7,4.7-3.6,1.9-.9,4.1-1.4,6.6-1.4s3.3.3,4.9.9c1.6.6,2.9,1.4,3.8,2.4v-14.2c0-.8-.1-1.6-.4-2.3-.2-.7-.9-1.1-2.1-1.2v-.7l7.3-2.3v43.8c0,.4,0,.8.1,1.3,0,.5.2.9.4,1.3.2.4.4.7.7,1,.3.3.6.4,1,.4v.7h-7.1ZM125.4,80.4c1,0,2-.2,3-.6,1-.4,1.8-1,2.5-1.7s1.3-1.5,1.8-2.5c.5-.9.7-2,.7-3.1v-10c0-1.4-.3-2.6-.9-3.7s-1.3-2-2.2-2.8c-.9-.8-1.8-1.4-2.9-1.8-1-.4-2.1-.6-3-.6-1.6,0-3,.4-4.3,1.1-1.3.8-2.3,1.7-3.2,2.9-.9,1.2-1.5,2.5-2,4-.4,1.5-.7,3-.7,4.4s.2,3.4.7,5.1c.5,1.7,1.2,3.2,2.1,4.5.9,1.3,2.1,2.4,3.5,3.3,1.4.9,2.9,1.3,4.7,1.4Z"/>
    <path class="cls-2" d="M151.6,67.6c.2,1.7.6,3.3,1.2,4.8.6,1.5,1.5,2.9,2.5,4,1,1.2,2.3,2.1,3.8,2.8,1.5.7,3.3,1.1,5.2,1.1s2.2-.2,3.4-.5c1.2-.3,2.3-.8,3.3-1.3,1-.6,1.9-1.3,2.7-2.1.8-.8,1.3-1.8,1.6-2.9h.7v5.5c-.3,0-.6,0-1,.3-.4.2-.8.4-1.3.7-1,.6-2.3,1.2-3.9,1.9-1.7.7-3.8,1-6.6,1s-4.3-.3-6.2-.9c-2-.6-3.7-1.6-5.2-2.9-1.5-1.3-2.7-3-3.6-5-.9-2-1.3-4.5-1.3-7.3s.3-3.6.9-5.5c.6-1.8,1.5-3.5,2.8-5,1.2-1.5,2.8-2.7,4.8-3.6,1.9-.9,4.3-1.4,7-1.4s4.6.4,6.4,1.2c1.8.8,3.3,2,4.5,3.4,1.2,1.5,2.1,3.2,2.7,5.2.6,2,.9,4.2.9,6.6h-25.3ZM162.2,53.6c-1.7,0-3.2.3-4.4,1-1.2.7-2.3,1.6-3.2,2.6-.9,1.1-1.6,2.3-2,3.6-.5,1.4-.8,2.7-.9,4.1h20.8c0-1.4-.3-2.8-.8-4.2-.5-1.4-1.1-2.6-1.9-3.6-.8-1.1-1.9-1.9-3.1-2.6-1.3-.7-2.7-1-4.4-1Z"/>
    <path class="cls-2" d="M229.6,77.6c0,.4,0,.8.1,1.3,0,.5.2.9.4,1.3.2.4.4.7.7,1,.3.3.6.4,1,.4v.7h-9.5v-.7c.4,0,.7-.1,1-.4.3-.3.5-.6.8-1,.2-.4.4-.8.5-1.3,0-.5.1-.9.1-1.3v-15.7c0-1.1-.2-2.2-.5-3.2-.3-1-.8-1.9-1.4-2.7-.6-.8-1.4-1.4-2.3-1.8-.9-.5-2-.7-3.1-.7s-2.4.3-3.4.9c-.9.6-1.7,1.3-2.3,2.2-.6.9-1.1,1.8-1.3,2.7-.3.9-.4,1.6-.4,2.2v16.1c0,.4,0,.8.1,1.3,0,.5.3.9.5,1.3.2.4.5.7.7,1,.3.3.6.4,1,.4v.7h-9.4v-.7c.3,0,.7-.1.9-.4.3-.3.5-.6.8-1,.2-.4.4-.8.5-1.3,0-.5.1-.9.1-1.3v-16.2c0-1.2-.2-2.2-.6-3.2-.4-1-1-1.8-1.7-2.5-.7-.7-1.5-1.2-2.4-1.6-.9-.4-1.8-.6-2.7-.6s-2.4.2-3.3.7c-.9.5-1.7,1.1-2.3,1.8-.6.7-1.1,1.5-1.4,2.4-.3.9-.5,1.7-.5,2.4v16.8c0,.4,0,.8.1,1.3,0,.5.3.9.5,1.3.2.4.5.7.7,1,.3.3.6.4,1,.4v.7h-9.4v-.7c.3,0,.7-.1.9-.4.3-.3.5-.6.8-1,.2-.4.4-.8.5-1.3,0-.5.1-.9.1-1.3v-19.5c0-.4,0-.8,0-1.3,0-.5-.1-.9-.3-1.4-.1-.4-.4-.8-.7-1.1-.3-.3-.8-.4-1.4-.4v-.7l7.2-2.4v3.7c.7-.8,1.7-1.6,3-2.4,1.3-.8,3-1.2,5.1-1.2s2.6.2,3.6.6c1.1.4,2,.9,2.8,1.5.8.6,1.5,1.3,2.1,2.1.6.8,1.1,1.5,1.5,2.3.4-.7.8-1.5,1.4-2.2.5-.8,1.2-1.4,1.9-2.1.8-.6,1.7-1.1,2.7-1.5,1-.4,2.3-.6,3.7-.6,2.7,0,4.9.5,6.4,1.5,1.6,1,2.7,2.1,3.5,3.5.8,1.4,1.2,2.8,1.4,4.3.2,1.5.3,2.7.3,3.8v13.6Z"/>
    <path class="cls-2" d="M240.3,82.3v-.7c.4,0,.7-.1,1-.4s.5-.6.7-1c.2-.4.3-.8.4-1.3,0-.5.1-.9.1-1.3v-20.2c0-.8-.1-1.6-.4-2.4-.2-.8-.9-1.2-2.1-1.2v-.7l7.3-2.3v26.7c0,.4,0,.8.1,1.3,0,.5.2.9.4,1.3.2.4.4.7.7,1,.3.3.6.4,1,.4v.7h-9.5ZM240.6,43.9c0-1,.3-1.8,1-2.5.7-.7,1.5-1,2.4-1s1.8.3,2.5,1c.7.7,1,1.5,1,2.5s-.3,1.8-1,2.4c-.7.6-1.5.9-2.5.9s-1.8-.3-2.4-.9c-.7-.6-1-1.4-1-2.4Z"/>
    <path class="cls-2" d="M284.4,79.7c-.4,0-.8,0-1.1.3s-.7.4-1.2.6c-.8.5-1.9,1-3.1,1.5-1.3.5-2.9.8-5,.8s-4.8-.4-6.9-1.2c-2.1-.8-3.9-1.9-5.5-3.4-1.5-1.4-2.7-3.1-3.6-5-.9-1.9-1.3-4-1.3-6.2s.4-4.1,1.1-6c.8-1.9,1.8-3.6,3.2-5,1.4-1.5,3.1-2.6,5.2-3.5,2.1-.9,4.4-1.3,7-1.3s3.3.2,4.4.6c1.1.4,2.1.8,2.8,1.2.4.2.9.4,1.3.6.4.1.8.2,1.3.2v5.5h-.7c-.2-.9-.7-1.7-1.3-2.4-.6-.7-1.4-1.3-2.2-1.8-.8-.5-1.7-.8-2.7-1.1-1-.2-1.9-.4-2.8-.4-2,0-3.7.4-5.2,1.1-1.5.7-2.7,1.6-3.7,2.8-1,1.1-1.7,2.4-2.2,3.9-.5,1.5-.7,3-.7,4.5s.3,3.6.9,5.3,1.4,3.3,2.5,4.6c1.1,1.4,2.4,2.5,4,3.3,1.6.8,3.3,1.2,5.2,1.2s2.6-.2,3.8-.6c1.1-.4,2.1-.9,2.9-1.5.8-.6,1.4-1.3,1.9-2.1.5-.8.8-1.5.9-2.1h.7v5.7Z"/>
    <path class="cls-2" d="M291.5,34.3h10.4v.7h-.4c-.4,0-.7.1-1,.4-.3.3-.5.6-.8,1-.2.4-.4.8-.5,1.3-.1.4-.2.8-.2,1.2v40.6c0,1.6-.2,3-.6,4.3-.4,1.3-.9,2.5-1.6,3.7-.7,1.1-1.4,2.2-2.2,3.1-.8.9-1.6,1.8-2.5,2.6-2,1.8-4.3,3.3-6.8,4.5l-.4-.6c1.7-1.2,3.2-2.6,4.5-4.3,1.1-1.4,2.2-3.1,3.1-5.2,1-2,1.5-4.4,1.5-7.1v-41.7c0-.3,0-.7-.1-1.2,0-.4-.3-.9-.5-1.3-.2-.4-.5-.8-.8-1-.3-.3-.6-.4-.9-.4h-.4v-.7Z"/>
    <path class="cls-2" d="M319.7,82.8c-2.4,0-4.6-.4-6.6-1.2-1.9-.8-3.6-1.9-5-3.3-1.4-1.4-2.5-3-3.2-4.9-.8-1.9-1.1-4-1.1-6.2s.4-4.6,1.2-6.5c.8-2,2-3.7,3.4-5.1,1.5-1.4,3.2-2.5,5.2-3.3,2-.8,4.2-1.2,6.5-1.2s4.5.4,6.4,1.1c1.9.8,3.6,1.8,5,3.2,1.4,1.4,2.5,3,3.3,4.8.8,1.9,1.2,3.9,1.2,6.2s-.4,4.1-1.1,6.1c-.7,2-1.7,3.7-3.1,5.2-1.4,1.5-3.1,2.7-5.1,3.6-2,.9-4.4,1.4-7,1.4ZM319.2,53.6c-1.7,0-3.3.5-4.6,1.3-1.3.8-2.4,1.7-3.3,2.9-.9,1.2-1.6,2.5-2,4-.5,1.5-.7,3-.7,4.6s.3,3.5.8,5.2,1.4,3.2,2.4,4.5,2.3,2.4,3.7,3.1c1.5.8,3.1,1.2,4.9,1.2s3.4-.4,4.8-1.2c1.4-.8,2.5-1.8,3.5-3,.9-1.2,1.6-2.6,2.1-4.2.5-1.6.7-3.1.7-4.7s-.2-3.2-.7-4.8c-.5-1.6-1.2-3.1-2.3-4.4-1-1.3-2.3-2.4-3.8-3.2-1.5-.8-3.3-1.2-5.3-1.2Z"/>
    <path class="cls-2" d="M358.1,51.2c2.6,0,4.9.4,6.8,1.3,1.9.9,3.5,2,4.8,3.5,1.3,1.5,2.2,3.1,2.8,5,.6,1.9.9,3.8.9,5.7s-.3,3.9-.9,5.9c-.6,1.9-1.6,3.6-2.9,5.2-1.3,1.5-2.9,2.8-4.8,3.7-1.9.9-4.1,1.4-6.6,1.4s-3.5-.4-5-1.1c-1.5-.8-2.7-1.7-3.6-2.7v3.4h-7.1v-.7c.3,0,.7-.1.9-.4.3-.3.5-.6.8-1,.2-.4.4-.8.5-1.3,0-.5.1-.9.1-1.3v-37.2c0-.8-.1-1.6-.4-2.3-.2-.7-.9-1.1-2.1-1.2v-.7l7.3-2.3v20.8c1.1-1.1,2.4-2,4-2.6,1.5-.6,3-.9,4.4-.9ZM358.8,80.4c1.7,0,3.3-.5,4.5-1.3,1.3-.8,2.3-1.7,3.2-2.9.8-1.2,1.5-2.5,1.9-4,.4-1.5.6-3,.6-4.6s-.2-3.4-.7-5.1c-.5-1.7-1.2-3.1-2.1-4.4-.9-1.3-2.1-2.4-3.5-3.2-1.4-.8-3-1.2-4.8-1.2s-2,.2-3,.7c-1,.5-1.8,1.1-2.6,1.8-.8.8-1.4,1.7-1.8,2.7-.5,1-.7,2.1-.7,3.3v9c0,1.4.3,2.7.8,3.8.5,1.1,1.2,2.1,2.1,2.8.9.8,1.9,1.4,3,1.8,1.1.4,2.2.6,3.2.6Z"/>
    <path class="cls-2" d="M403.6,74c0,1.3-.3,2.4-.9,3.5-.6,1.1-1.5,2-2.6,2.8-1.1.8-2.4,1.4-3.8,1.9s-3,.7-4.7.7-3.8-.3-5.1-.8c-1.3-.6-2.4-1.1-3.4-1.7-.6-.4-1.2-.7-1.7-1-.5-.3-1.1-.4-1.7-.4v-5.5h.7c.1.7.6,1.4,1.3,2.2.7.8,1.6,1.5,2.5,2.2,1,.7,2.1,1.3,3.3,1.7s2.4.7,3.6.7,1.8,0,2.7-.3c.9-.2,1.8-.5,2.5-.9.8-.4,1.4-1,1.9-1.6.5-.7.8-1.4.8-2.4s-.3-1.7-.8-2.4c-.5-.7-1.2-1.3-2-1.8-.8-.5-1.8-1-2.8-1.3-1.1-.4-2.1-.8-3.2-1.1-1.3-.4-2.5-.8-3.8-1.3-1.3-.5-2.4-1.1-3.5-1.7-1-.7-1.8-1.5-2.5-2.4-.6-.9-.9-2.1-.9-3.4s.2-2.2.6-3.2c.4-1,1.1-1.9,2-2.7.9-.8,2.2-1.4,3.7-1.8,1.5-.5,3.3-.7,5.5-.7s3.4.2,4.4.5c1,.3,1.9.6,2.6,1,.4.2.9.4,1.3.5.4.1.9.2,1.5.2v5.1h-.6c-.9-1.6-2.2-2.8-4-3.6-1.8-.8-3.6-1.2-5.5-1.2s-2.3.2-3.1.5c-.9.3-1.6.7-2.1,1.2-.6.5-1,1-1.2,1.6-.3.6-.4,1.2-.4,1.7,0,.8.2,1.5.7,2.1.5.6,1.1,1.1,1.9,1.5s1.7.9,2.7,1.2c1,.4,2.1.8,3.2,1.1,1.4.4,2.7.9,4.1,1.4,1.4.5,2.6,1.1,3.6,1.9,1.1.7,1.9,1.6,2.6,2.6.7,1,1,2.2,1,3.6Z"/>
  </g>
  <path class="cls-3" d="M334.6,109.1c-2.8,0-5-.8-6.8-2.5-1.8-1.7-2.7-3.8-2.7-6.3s.8-4.6,2.4-6.3c1.6-1.7,3.7-2.5,6.2-2.5s2.7.3,3.8.8c1.1.6,1.9,1.3,2.5,2.2,1.1,1.8,1.7,3.6,1.7,5.5v.5h-15c0,2.1.8,3.9,2.3,5.1,1.5,1.3,3.4,2,5.8,2s4-.5,5.6-1.6v1.6c-1.4,1-3.3,1.5-5.8,1.5ZM326.8,99.1h13.4c0-.7-.1-1.3-.4-2-.2-.7-.6-1.3-1.1-2s-1.2-1.2-2-1.6c-.9-.4-1.9-.6-3-.6-2,0-3.7.6-4.9,1.9-1.2,1.3-1.9,2.7-2,4.3Z"/>
  <path class="cls-2" d="M307.2,108.6h-8v-16.5h7.2c1.5,0,2.7.4,3.5,1.1.8.7,1.3,1.7,1.3,2.9,0,1.8-.8,3-2.4,3.5,1.2.2,2.2.7,2.9,1.4.7.8,1,1.8,1,3s-.5,2.5-1.5,3.3c-1,.8-2.3,1.2-4,1.2ZM300.3,93.1v6.2h5.9c1.2,0,2.2-.3,2.8-.8.7-.5,1-1.3,1-2.3s-.3-1.8-1-2.3-1.6-.8-2.8-.8h-5.9ZM300.3,100.3v7.3h6.7c1.4,0,2.5-.3,3.3-1,.8-.6,1.2-1.5,1.2-2.7s-.4-2.1-1.2-2.7c-.8-.6-1.9-1-3.3-1h-6.7Z"/>
  <path class="cls-2" d="M358.7,108.9c-1.2,0-2.4-.2-3.5-.5-1.1-.3-2-.8-2.7-1.3v-1.3c.6.5,1.5,1,2.6,1.4,1.1.4,2.3.6,3.5.6s2.7-.3,3.6-1c1-.6,1.4-1.5,1.4-2.6s-.3-1.6-1-2.2c-.3-.3-.7-.5-1.2-.7-.4-.2-.9-.4-1.4-.5-.2,0-.8-.2-1.6-.4l-1.8-.5c-.6-.2-1.1-.4-1.5-.6-.8-.4-1.3-.8-1.7-1.3-.3-.5-.5-1.2-.6-2.1,0-1.2.5-2.1,1.5-2.9,1-.8,2.4-1.2,4.2-1.2s3.7.5,5.2,1.4v1.2c-1.5-1-3.3-1.5-5.1-1.5s-2.6.3-3.4.9c-.8.6-1.2,1.3-1.2,2.2,0,.8.4,1.6,1.4,2.3.2.1.5.3,1,.4.5.2.8.3,1.1.4l1.2.3h.5c0,.1,1.7.6,1.7.6.4,0,.9.3,1.5.6.6.3,1,.5,1.3.8.8.8,1.2,1.7,1.2,2.8s-.6,2.6-1.8,3.4c-1.2.8-2.7,1.2-4.4,1.2Z"/>
  <path class="cls-2" d="M385,108.6h-1.1v-15.5h-6.1v-1h13.4v1h-6.1v15.5Z"/>
  <g class="cls-4">
    <path class="cls-2" d="M55.4,91.8h9.5v1h-8.4v6.7h7.7v1h-7.7v8.2h-1.1v-17Z"/>
    <path class="cls-2" d="M79.8,91.8h1.1v17h-1.1v-17Z"/>
    <path class="cls-2" d="M98.1,91.8l7.6,10.7,3.2,4.6h0c-.1-1.1-.2-2.8-.2-5.3v-10h1.1v17h-1l-7.7-10.8-3.2-4.5h0c.1,1.1.2,3.1.2,6v9.3h-1.1v-17h1Z"/>
    <path class="cls-2" d="M129.5,91.8c1.5,0,2.7,0,3.5.3,2.1.5,3.6,1.5,4.7,2.9,1,1.4,1.5,3.2,1.5,5.2s-.6,4-1.7,5.5-2.6,2.4-4.5,2.8c-.8.2-1.9.3-3.1.3h-3.7v-17h3.3ZM138,100.2c0-1.9-.4-3.4-1.3-4.6-.8-1.2-2.1-2-3.6-2.5-.5-.1-1-.2-1.7-.2-.6,0-1.4,0-2.4,0h-1.7v14.9h1.8c.9,0,1.7,0,2.2,0,.5,0,1,0,1.5-.2,1.6-.4,2.9-1.2,3.8-2.5s1.4-2.9,1.4-4.8Z"/>
    <path class="cls-2" d="M173.2,101.9l-6-10.2h1.2l5.2,9.2h0l5.3-9.2h1.2l-6,10.2v6.8h-1.1v-6.8Z"/>
    <path class="cls-2" d="M194,100.3c0-1.7.3-3.2,1-4.5s1.6-2.4,2.7-3.2c1.2-.8,2.5-1.1,4-1.1s2.9.4,4.1,1.1c1.2.8,2.1,1.8,2.7,3.1s.9,2.9.9,4.6-.3,3.2-1,4.5-1.6,2.4-2.7,3.1c-1.2.8-2.5,1.1-3.9,1.1s-2.9-.4-4.1-1.1-2.1-1.8-2.7-3.1c-.6-1.3-.9-2.8-.9-4.5ZM208.2,100.3c0-1.6-.3-3-.9-4.2-.6-1.2-1.4-2.1-2.3-2.7-1-.6-2.1-.9-3.3-.9s-2.3.3-3.3.9c-1,.6-1.8,1.5-2.4,2.7-.6,1.2-.9,2.6-.9,4.2s.3,3,.9,4.2c.6,1.2,1.4,2.1,2.4,2.7s2.1.9,3.3.9,2.3-.3,3.2-.9,1.7-1.5,2.3-2.7c.6-1.2.9-2.6.9-4.2Z"/>
    <path class="cls-2" d="M225,102.7v-10.9h1.1v11.4c0,1.5.4,2.7,1.3,3.6.9.9,2.1,1.3,3.7,1.3s2.9-.4,3.7-1.3c.9-.8,1.3-2,1.3-3.6v-11.4h1.1v10.9c0,4.2-2.1,6.4-6.2,6.4s-3.6-.5-4.6-1.6c-1-1.1-1.5-2.7-1.5-4.7Z"/>
    <path class="cls-2" d="M257.2,91.8c1.1,0,1.9,0,2.5.1,2.8.5,4.1,2,4.1,4.4s-.5,2.5-1.4,3.4-2.1,1.4-3.6,1.5h0c0,0,5.9,7.6,5.9,7.6h-1.4l-5.9-7.5h-2.9v7.5h-1.1v-17h3.7ZM262.7,96.3c0-1.3-.5-2.2-1.4-2.7s-2.3-.8-4.1-.8h-2.5v7.5h2.5c1.8,0,3.2-.3,4.1-.9s1.4-1.7,1.4-3.1Z"/>
  </g>
</svg>