<?xml version="1.0" encoding="utf-8"?>
<!-- Generator: Adobe Illustrator 28.1.0, SVG Export Plug-In . SVG Version: 6.00 Build 0)  -->
<svg version="1.1" id="Layer_1" xmlns="http://www.w3.org/2000/svg" xmlns:xlink="http://www.w3.org/1999/xlink" x="0px" y="0px"
	 viewBox="0 0 424.2 144.5" style="enable-background:new 0 0 424.2 144.5;" xml:space="preserve">
<style type="text/css">
	.st0{fill:#F4A10C;}
	.st1{font-family:'Forum';}
	.st2{font-size:72.8513px;}
	.st3{stroke:#FFFFFF;stroke-width:0.25;stroke-miterlimit:10;}
</style>
<g>
	<circle class="st0" cx="352" cy="72.3" r="72.3"/>
	<text transform="matrix(1 0 0 1 -1.0199 82.4025)" class="st1 st2">AcademicJobs</text>
	<path d="M28.7,108.9c-1.2,0-2.4-0.2-3.5-0.5c-1.1-0.3-2-0.8-2.7-1.3v-1.3c0.6,0.5,1.5,1,2.6,1.4c1.1,0.4,2.3,0.6,3.5,0.6
		c1.5,0,2.7-0.3,3.6-1c1-0.6,1.4-1.5,1.4-2.6c0-0.9-0.3-1.6-1-2.2c-0.3-0.3-0.7-0.5-1.2-0.7c-0.4-0.2-0.9-0.4-1.4-0.5
		c-0.2-0.1-0.8-0.2-1.6-0.4l-1.8-0.5c-0.6-0.2-1.1-0.4-1.5-0.6c-0.8-0.4-1.3-0.8-1.7-1.3c-0.3-0.5-0.5-1.2-0.6-2.1
		c0-1.2,0.5-2.1,1.5-2.9c1-0.8,2.4-1.2,4.2-1.2c2,0,3.7,0.5,5.2,1.4v1.2c-1.5-1-3.3-1.5-5.1-1.5c-1.5,0-2.6,0.3-3.4,0.9
		c-0.8,0.6-1.2,1.3-1.2,2.2c-0.1,0.8,0.4,1.6,1.4,2.3c0.2,0.1,0.5,0.3,1,0.4c0.5,0.2,0.8,0.3,1.1,0.4l1.2,0.3l0.5,0.1l1.7,0.5
		c0.4,0.1,0.9,0.3,1.5,0.6c0.6,0.3,1,0.5,1.3,0.8c0.8,0.8,1.2,1.7,1.2,2.8c0,1.4-0.6,2.6-1.8,3.4C31.9,108.5,30.4,108.9,28.7,108.9z
		"/>
	<path d="M51.2,108.6H50V92.1h1.1V108.6z"/>
	<path d="M68.3,108.6h-1.1V92.1h1.2l6.7,15.4l6.7-15.4h1.1v16.5h-1.1V93.8l-6.3,14.9h-0.7l-6.3-14.9V108.6z"/>
	<path d="M99.8,108.6h-1.1V92.1h7.1c1.6,0,2.9,0.4,3.9,1.2c0.9,0.8,1.4,1.9,1.4,3.2c0,1.4-0.5,2.4-1.4,3.2c-0.9,0.8-2.2,1.2-3.9,1.2
		h-6V108.6z M99.8,93.1v6.9h5.9c1.4,0,2.4-0.3,3.1-0.9c0.7-0.6,1.1-1.4,1.1-2.6c0-1.1-0.4-1.9-1.1-2.5c-0.7-0.6-1.8-0.9-3.1-0.9
		H99.8z"/>
	<path d="M136.8,108.6h-11.1V92.1h1.1v15.5h10V108.6z"/>
	<path d="M154.8,108.6h-1.1V101l-6.7-8.9h1.4l5.9,7.8l5.9-7.8h1.3l-6.7,8.9V108.6z"/>
	<path d="M197.1,108.6H196V93.1h-6.1v-1h13.4v1h-6.1V108.6z"/>
	<path d="M218.6,108.6h-1.1V92.1h1.1v7.1h11.2v-7.1h1.1v16.5h-1.1v-8.4h-11.2V108.6z"/>
	<path class="st3" d="M255.2,108.7c-2.6,0-4.8-0.8-6.5-2.3c-1.7-1.6-2.6-3.6-2.6-6c0-2.4,0.8-4.4,2.3-6c1.5-1.6,3.5-2.4,5.9-2.4
		c1.4,0,2.6,0.3,3.6,0.8c1,0.5,1.8,1.2,2.4,2.1c1.1,1.7,1.6,3.4,1.6,5.2v0.5h-14.3c0,2,0.8,3.7,2.2,4.9c1.4,1.3,3.3,1.9,5.5,1.9
		c2,0,3.8-0.5,5.3-1.5v1.5C259.5,108.2,257.6,108.7,255.2,108.7z M247.8,99.2h12.7c0-0.6-0.1-1.3-0.3-1.9c-0.2-0.6-0.6-1.3-1-1.9
		s-1.1-1.1-1.9-1.5c-0.8-0.4-1.8-0.6-2.8-0.6c-1.9,0-3.5,0.6-4.7,1.8C248.5,96.3,247.9,97.7,247.8,99.2z"/>
	<path d="M334.5,108.7c-2.6,0-4.8-0.8-6.5-2.3c-1.7-1.6-2.6-3.6-2.6-6c0-2.4,0.8-4.4,2.3-6c1.5-1.6,3.5-2.4,5.9-2.4
		c1.4,0,2.6,0.3,3.6,0.8c1,0.5,1.8,1.2,2.4,2.1c1.1,1.7,1.6,3.4,1.6,5.2v0.5h-14.3c0,2,0.8,3.7,2.2,4.9c1.4,1.3,3.3,1.9,5.5,1.9
		c2,0,3.8-0.5,5.3-1.5v1.5C338.8,108.2,336.9,108.7,334.5,108.7z M327.1,99.2h12.7c0-0.6-0.1-1.3-0.3-1.9c-0.2-0.6-0.6-1.3-1-1.9
		c-0.5-0.6-1.1-1.1-1.9-1.5c-0.8-0.4-1.8-0.6-2.8-0.6c-1.9,0-3.5,0.6-4.7,1.8C327.8,96.3,327.2,97.7,327.1,99.2z"/>
	<path d="M307.2,108.6h-8V92.1h7.2c1.5,0,2.7,0.4,3.5,1.1c0.8,0.7,1.3,1.7,1.3,2.9c0,1.8-0.8,3-2.4,3.5c1.2,0.2,2.2,0.7,2.9,1.4
		c0.7,0.8,1,1.8,1,3c0,1.4-0.5,2.5-1.5,3.3C310.2,108.2,308.9,108.6,307.2,108.6z M300.3,93.1v6.2h5.9c1.2,0,2.2-0.3,2.8-0.8
		c0.7-0.5,1-1.3,1-2.3c0-1-0.3-1.8-1-2.3s-1.6-0.8-2.8-0.8H300.3z M300.3,100.3v7.3h6.7c1.4,0,2.5-0.3,3.3-1
		c0.8-0.6,1.2-1.5,1.2-2.7s-0.4-2.1-1.2-2.7c-0.8-0.6-1.9-1-3.3-1H300.3z"/>
	<path d="M358.7,108.9c-1.2,0-2.4-0.2-3.5-0.5c-1.1-0.3-2-0.8-2.7-1.3v-1.3c0.6,0.5,1.5,1,2.6,1.4c1.1,0.4,2.3,0.6,3.5,0.6
		c1.5,0,2.7-0.3,3.6-1c1-0.6,1.4-1.5,1.4-2.6c0-0.9-0.3-1.6-1-2.2c-0.3-0.3-0.7-0.5-1.2-0.7c-0.4-0.2-0.9-0.4-1.4-0.5
		c-0.2-0.1-0.8-0.2-1.6-0.4l-1.8-0.5c-0.6-0.2-1.1-0.4-1.5-0.6c-0.8-0.4-1.3-0.8-1.7-1.3c-0.3-0.5-0.5-1.2-0.6-2.1
		c0-1.2,0.5-2.1,1.5-2.9c1-0.8,2.4-1.2,4.2-1.2c2,0,3.7,0.5,5.2,1.4v1.2c-1.5-1-3.3-1.5-5.1-1.5c-1.5,0-2.6,0.3-3.4,0.9
		c-0.8,0.6-1.2,1.3-1.2,2.2c-0.1,0.8,0.4,1.6,1.4,2.3c0.2,0.1,0.5,0.3,1,0.4c0.5,0.2,0.8,0.3,1.1,0.4l1.2,0.3l0.5,0.1l1.7,0.5
		c0.4,0.1,0.9,0.3,1.5,0.6c0.6,0.3,1,0.5,1.3,0.8c0.8,0.8,1.2,1.7,1.2,2.8c0,1.4-0.6,2.6-1.8,3.4
		C361.9,108.5,360.4,108.9,358.7,108.9z"/>
	<path d="M385,108.6h-1.1V93.1h-6.1v-1h13.4v1H385V108.6z"/>
</g>
</svg>
